<?xml version="1.0" encoding="utf-8"?>
<!-- Generator: Adobe Illustrator 24.0.2, SVG Export Plug-In . SVG Version: 6.00 Build 0)  -->
<svg version="1.1" xmlns="http://www.w3.org/2000/svg" xmlns:xlink="http://www.w3.org/1999/xlink" x="0px" y="0px"
	 viewBox="0 0 1920 1080" style="enable-background:new 0 0 1920 1080;" xml:space="preserve">
<style type="text/css">
	.st0{fill:url(#SVGID_1_);}
	.st1{fill:#1A2160;}
	.st2{fill:#02063D;}
	.st3{display:none;}
	.st4{display:inline;}
	.st5{fill:#01052B;}
	.st6{display:inline;fill:#01052B;}
	.st7{opacity:0.5;fill:#FFFFFF;}
	.st8{fill:#FFFFFF;}
	.st9{fill-rule:evenodd;clip-rule:evenodd;fill:#FFFFFF;}
	.st10{fill-rule:evenodd;clip-rule:evenodd;fill:#02063D;}
	.st11{fill:none;stroke:#FFFFFF;stroke-miterlimit:10;}
	.st12{fill:none;stroke:#FFFFFF;stroke-width:2;stroke-miterlimit:10;}
</style>
<g id="Layer_1">
	<radialGradient id="SVGID_1_" cx="960" cy="540" r="778.8453" gradientUnits="userSpaceOnUse">
		<stop  offset="0.2891" style="stop-color:#1A47AB"/>
		<stop  offset="0.6015" style="stop-color:#0E2774"/>
		<stop  offset="0.864" style="stop-color:#050F4C"/>
		<stop  offset="1" style="stop-color:#02063D"/>
	</radialGradient>
	<rect class="st0" width="1920" height="1080"/>
	<g class="st3">
		<g class="st4">
			<g>
				<rect x="166.2" y="43.1" class="st5" width="2.5" height="28.7"/>
			</g>
			<g>
				<path class="st5" d="M167.5,70.1c-0.2,0-0.4,0-0.6,0c-5.4-0.3-6.9-4.4-6.9-6.5l1.2,0l1.2,0c0,0.4,0.2,3.8,4.5,4
					c2.2,0.1,4.1-0.6,5-2c0.7-1,0.7-2.3,0.1-3.4c-0.6-1.1-1.7-1.7-2.7-2.2l-0.3-0.1c-1.5-0.8-2.3-1.2-2.3-1.2l0,0
					c0,0-0.8-0.4-2.4-1.2l-0.2-0.1c-1.2-0.6-2.9-1.5-3.8-3.3c-1-2-0.9-4.1,0.3-5.9c1.4-2.2,4.1-3.3,7.2-3.2c5.4,0.3,6.9,4.4,6.9,6.5
					l-2.5,0c0-0.4-0.2-3.8-4.5-4c-2.2-0.1-4.1,0.6-5,2c-0.7,1-0.7,2.3-0.2,3.4c0.6,1.1,1.7,1.7,2.7,2.2l0.3,0.1
					c1.5,0.8,2.3,1.2,2.3,1.2l0,0c0,0,0.8,0.4,2.4,1.2l0.2,0.1c1.2,0.6,2.9,1.5,3.8,3.3c1,2,0.9,4.1-0.3,5.9
					C172.8,68.9,170.4,70.1,167.5,70.1z"/>
			</g>
		</g>
		<g class="st4">
			<g>
				<g>
					<rect x="52.2" y="54.9" class="st5" width="15.8" height="2.5"/>
				</g>
				<g>
					<rect x="52.2" y="59.7" class="st5" width="15.8" height="2.5"/>
				</g>
			</g>
			<g>
				<path class="st5" d="M66.9,71.6c-3.1,0-6-1.4-8.2-4c-2.1-2.5-3.3-5.8-3.3-9.3c0-3.5,1.2-6.8,3.3-9.3c2.2-2.6,5.1-4,8.2-4
					c3.1,0,6,1.4,8.2,4l-1.9,1.6c-1.7-2-4-3.1-6.3-3.1c-2.4,0-4.6,1.1-6.3,3.1c-1.8,2.1-2.7,4.8-2.7,7.7c0,2.9,1,5.7,2.7,7.7
					c1.7,2,4,3.1,6.3,3.1c2.4,0,4.6-1.1,6.3-3.1l1.9,1.6C72.9,70.2,70,71.6,66.9,71.6z"/>
			</g>
		</g>
		<g class="st4">
			<g>
				<path class="st5" d="M266.4,69l-1.6-1.8c1.3-2.2,3.4-6,3.7-7c0.3-1-0.4-2.2-1.5-3.6c-1.7-2.2-2.1-5-1-7.3
					c1.1-2.2,3.3-3.6,5.8-3.6c3.5,0,6.4,2.9,6.4,6.4h-2.5c0-2.2-1.8-4-4-4c-1.5,0-2.9,0.8-3.5,2.2c-0.7,1.5-0.5,3.1,0.7,4.6
					c1.3,1.7,2.5,3.6,1.9,5.7c-0.2,1-1.3,3-2.3,4.7c1.6-0.4,3.5-0.6,5,0c2.3,1,4.8,0.5,5.7-0.1l1.4,2c-1.6,1.1-5,1.7-8.1,0.4
					C270.9,67.2,267.4,68.5,266.4,69z"/>
			</g>
			<g>
				<rect x="264.9" y="57.2" class="st5" width="9.9" height="2.5"/>
			</g>
		</g>
		<g class="st4">
			<g>
				<g>
					<rect x="270.4" y="191.3" class="st5" width="2.5" height="12.2"/>
				</g>
				<g>
					<polygon class="st5" points="277.1,179.8 271.7,188.6 266.1,179.8 262.7,179.8 262.7,179.9 270.4,192.1 272.9,192.1 
						280.5,179.8 280.5,179.8 					"/>
				</g>
				<g>
					<rect x="263.9" y="190" class="st5" width="15.2" height="2.5"/>
				</g>
				<g>
					<rect x="263.9" y="194.8" class="st5" width="15.2" height="2.5"/>
				</g>
			</g>
		</g>
		<g class="st4">
			<g>
				<g>
					<rect x="270.3" y="468.9" class="st5" width="2.7" height="12.9"/>
				</g>
				<g>
					<polygon class="st5" points="277.4,456.9 271.7,466.1 265.9,456.9 262.3,456.9 262.2,456.9 270.4,469.8 273,469.8 281,456.9 
						281,456.9 					"/>
				</g>
				<g>
					<rect x="263.5" y="467.6" class="st5" width="16" height="2.7"/>
				</g>
			</g>
		</g>
		<g class="st4">
			<g>
				<g>
					<rect x="53.9" y="321" class="st5" width="19.3" height="2.5"/>
				</g>
				<g>
					<rect x="53.9" y="325.6" class="st5" width="19.3" height="2.5"/>
				</g>
			</g>
			<g>
				<polygon class="st5" points="58.3,335 58.3,318.4 68.5,335 71.2,335 71.2,314 68.7,314 68.7,330.6 58.5,314 55.8,314 55.8,335 
									"/>
			</g>
		</g>
		<g class="st4">
			<g>
				<rect x="369.8" y="456" class="st5" width="2.7" height="23.7"/>
			</g>
			<g>
				<polygon class="st5" points="381.1,456 370.1,466.7 372.2,469 385.7,456 				"/>
			</g>
			<g>
				<polygon class="st5" points="385.6,479.8 372.2,466.7 370.1,469 380.9,479.8 				"/>
			</g>
			<g>
				<rect x="367.6" y="466.4" class="st5" width="17.9" height="2.7"/>
			</g>
		</g>
		<g class="st4">
			<g>
				<g>
					<path class="st5" d="M373,60.4c2.1-0.2,4.7-0.7,6.5-2.3c1.3-1.1,1.9-2.6,1.9-4.5c0-3.4-2.8-5.9-7.4-6.6l-0.4,2.6
						c2.5,0.4,5.2,1.7,5.2,4c0,1.1-0.3,1.9-1.1,2.5c-1.9,1.8-5.9,1.8-9.1,1.7v1.8l11,11.1h3.7L373,60.4z"/>
				</g>
			</g>
			<g>
				<rect x="366.5" y="47.1" class="st5" width="18.7" height="2.6"/>
			</g>
			<g>
				<rect x="366.5" y="52.7" class="st5" width="18.7" height="2.6"/>
			</g>
		</g>
		<g class="st4">
			<g>
				<polygon class="st5" points="385.5,181.8 381.9,197.1 377.6,181.8 375.2,181.8 370.9,197.1 367.2,181.8 364.7,181.8 
					369.5,202.3 371.9,202.3 376.4,186.7 380.8,202.3 383.2,202.3 388.1,181.8 				"/>
			</g>
			<g>
				<g>
					<rect x="362.9" y="187.9" class="st5" width="26.8" height="2.5"/>
				</g>
				<g>
					<rect x="362.9" y="192.2" class="st5" width="26.8" height="2.5"/>
				</g>
			</g>
		</g>
		<g class="st4">
			<g>
				<g>
					<rect x="159.2" y="457.7" class="st5" width="2.5" height="20.8"/>
				</g>
				<g>
					<path class="st5" d="M171.7,470.7h-2.5v-11.8c-0.2,0-0.6,0-0.7,0c-0.1,0-0.2,0-0.3,0h-8.9v-2.5l9.1,0c0.6,0,1.8-0.1,2.6,0.7
						c0.3,0.3,0.6,0.8,0.6,1.6V470.7z"/>
				</g>
			</g>
			<g>
				<g>
					<rect x="173.6" y="457.7" class="st5" width="2.5" height="20.8"/>
				</g>
				<g>
					<path class="st5" d="M166.5,479.7c-0.7,0-1.6-0.1-2.3-0.7c-0.3-0.3-0.6-0.8-0.6-1.6v-12h2.5v11.8c0.2,0,0.6,0,0.7,0
						c0.1,0,0.2,0,0.3,0h8.9v2.5l-9.1,0C166.8,479.7,166.7,479.7,166.5,479.7z"/>
				</g>
			</g>
		</g>
		<path class="st6" d="M70.8,454.5c-3.6,0-9.6,0-10,12.1h-3.5v3h3.4c-0.3,9.1-2.9,9.1-5,9.1h-0.3v3h0.3c3.7,0,7.6-1,8-12.1h4.4v-3
			h-4.3c0.3-9.1,3.7-9.1,7-9.1h0.3v-3H70.8z"/>
		<g class="st4">
			<g>
				<g>
					<path class="st5" d="M168,325.2h-6.3v-13h6.3c3.6,0,6.5,2.9,6.5,6.5C174.5,322.3,171.5,325.2,168,325.2z M164.1,322.8h3.8
						c2.2,0,4-1.8,4-4c0-2.2-1.8-4-4-4h-3.8V322.8z"/>
				</g>
				<g>
					<path class="st5" d="M169.6,336.7h-7.9v-13.9h7.9c3.8,0,7,3.1,7,7C176.5,333.5,173.4,336.7,169.6,336.7z M164.1,334.2h5.4
						c2.5,0,4.5-2,4.5-4.5c0-2.5-2-4.5-4.5-4.5h-5.4V334.2z"/>
				</g>
			</g>
			<g>
				<rect x="166.3" y="310" class="st5" width="2.5" height="28.9"/>
			</g>
		</g>
		<g class="st4">
			<g>
				<g>
					
						<rect x="360.1" y="322.6" transform="matrix(0.2304 -0.9731 0.9731 0.2304 -27.6661 612.6246)" class="st5" width="26.7" height="2.5"/>
				</g>
				<g>
					
						<rect x="364.6" y="322.6" transform="matrix(0.2304 -0.9731 0.9731 0.2304 -24.2231 616.9782)" class="st5" width="26.7" height="2.5"/>
				</g>
			</g>
			<g>
				<path class="st5" d="M376.9,334.4c-2.8,0-5.5-1.1-7.5-3.1c-2-2-3.1-4.7-3.1-7.5c0-2.8,1.1-5.5,3.1-7.5c2-2,4.7-3.1,7.5-3.1
					s5.5,1.1,7.5,3.1l-1.8,1.8c-1.5-1.5-3.6-2.4-5.7-2.4s-4.2,0.8-5.7,2.4c-1.5,1.5-2.4,3.6-2.4,5.7c0,2.2,0.8,4.2,2.4,5.7
					c1.5,1.5,3.6,2.4,5.7,2.4s4.2-0.8,5.7-2.4l1.8,1.8C382.4,333.3,379.8,334.4,376.9,334.4z"/>
			</g>
		</g>
		<g class="st4">
			<g>
				<g>
					<rect x="264.6" y="317.5" class="st5" width="18" height="2.5"/>
				</g>
				<g>
					<rect x="264.7" y="321.6" class="st5" width="18" height="2.5"/>
				</g>
			</g>
			<g>
				<g>
					<path class="st5" d="M273.7,328.6h-7.6V313h7.6c4.3,0,7.8,3.5,7.8,7.8S278,328.6,273.7,328.6z M268.6,326.1h5.1
						c2.9,0,5.3-2.4,5.3-5.3c0-2.9-2.4-5.3-5.3-5.3h-5.1V326.1z"/>
				</g>
				<g>
					<rect x="266.2" y="326.4" class="st5" width="2.5" height="12.1"/>
				</g>
			</g>
		</g>
		<g class="st4">
			<g>
				<g>
					<rect x="55.2" y="196.1" class="st5" width="14.3" height="2.5"/>
				</g>
			</g>
			<g>
				<g>
					<path class="st5" d="M64.8,193.9h-9.6v-2.5h9.6c2.7,0,4.8-2.2,4.8-4.8c0-2.7-2.2-4.8-4.8-4.8h-5.9v-2.5h5.9
						c4,0,7.3,3.3,7.3,7.3C72.1,190.6,68.8,193.9,64.8,193.9z"/>
				</g>
				<g>
					<rect x="57.7" y="179.3" class="st5" width="2.5" height="25.4"/>
				</g>
			</g>
		</g>
		<g class="st4">
			<g>
				<g>
					<rect x="159.3" y="188" class="st5" width="16.4" height="2.5"/>
				</g>
				<g>
					<rect x="159.3" y="192.4" class="st5" width="16.4" height="2.5"/>
				</g>
			</g>
			<g>
				<path class="st5" d="M167.5,203.4c-2.5,0-4.8-1.1-6.1-3c-1.2-1.8-1.4-4.1-0.5-6.1c0.8-1.8,2.4-2.7,3.5-3.3l0.2-0.1
					c1.4-0.8,2.2-1.2,2.2-1.2l0,0c0.1,0,0.8-0.4,2.1-1.2l0.2-0.1c0.9-0.5,2-1.1,2.5-2.2c0.6-1.2,0.5-2.6-0.3-3.7
					c-0.9-1.3-2.5-2-4.4-1.9c-3.9,0.2-4.1,3.6-4.1,4l-2.5,0c0-2.1,1.3-6.2,6.4-6.5c2.8-0.2,5.2,0.9,6.6,2.9c1.2,1.8,1.4,4.1,0.5,6.1
					c-0.8,1.8-2.4,2.7-3.5,3.3l-0.2,0.1c-1.4,0.8-2.2,1.2-2.2,1.2l0,0c-0.1,0-0.8,0.4-2.1,1.2l-0.2,0.1c-0.9,0.5-2,1.1-2.5,2.2
					c-0.6,1.2-0.5,2.6,0.3,3.7c0.9,1.3,2.5,2,4.4,1.9c3.9-0.2,4.1-3.6,4.1-4l2.5,0c0,2.1-1.3,6.2-6.4,6.5
					C167.8,203.4,167.7,203.4,167.5,203.4z"/>
			</g>
		</g>
		<g class="st4">
			<g>
				<rect x="591.2" y="43.1" class="st5" width="2.5" height="28.7"/>
			</g>
			<g>
				<path class="st5" d="M592.5,70.1c-0.2,0-0.4,0-0.6,0c-5.4-0.3-6.9-4.4-6.9-6.5l1.2,0l1.2,0c0,0.4,0.2,3.8,4.5,4
					c2.2,0.1,4.1-0.6,5-2c0.7-1,0.7-2.3,0.1-3.4c-0.6-1.1-1.7-1.7-2.7-2.2l-0.3-0.1c-1.5-0.8-2.3-1.2-2.3-1.2l0,0
					c0,0-0.8-0.4-2.4-1.2l-0.2-0.1c-1.2-0.6-2.9-1.5-3.8-3.3c-1-2-0.9-4.1,0.3-5.9c1.4-2.2,4.1-3.3,7.2-3.2c5.4,0.3,6.9,4.4,6.9,6.5
					l-2.5,0c0-0.4-0.2-3.8-4.5-4c-2.2-0.1-4.1,0.6-5,2c-0.7,1-0.7,2.3-0.1,3.4c0.6,1.1,1.7,1.7,2.7,2.2l0.3,0.1
					c1.5,0.8,2.3,1.2,2.3,1.2l0,0c0,0,0.8,0.4,2.4,1.2l0.2,0.1c1.2,0.6,2.9,1.5,3.8,3.3c1,2,0.9,4.1-0.3,5.9
					C597.8,68.9,595.4,70.1,592.5,70.1z"/>
			</g>
		</g>
		<g class="st4">
			<g>
				<g>
					<rect x="477.2" y="54.9" class="st5" width="15.8" height="2.5"/>
				</g>
				<g>
					<rect x="477.2" y="59.7" class="st5" width="15.8" height="2.5"/>
				</g>
			</g>
			<g>
				<path class="st5" d="M491.9,71.6c-3.1,0-6-1.4-8.2-4c-2.1-2.5-3.3-5.8-3.3-9.3c0-3.5,1.2-6.8,3.3-9.3c2.2-2.6,5.1-4,8.2-4
					s6,1.4,8.2,4l-1.9,1.6c-1.7-2-4-3.1-6.3-3.1c-2.4,0-4.6,1.1-6.3,3.1c-1.8,2.1-2.7,4.8-2.7,7.7c0,2.9,1,5.7,2.7,7.7
					c1.7,2,4,3.1,6.3,3.1c2.4,0,4.6-1.1,6.3-3.1l1.9,1.6C497.9,70.2,495,71.6,491.9,71.6z"/>
			</g>
		</g>
		<g class="st4">
			<g>
				<path class="st5" d="M691.4,69l-1.6-1.8c1.3-2.2,3.4-6,3.7-7c0.3-1-0.4-2.2-1.5-3.6c-1.7-2.2-2.1-5-1-7.3
					c1.1-2.2,3.3-3.6,5.8-3.6c3.5,0,6.4,2.9,6.4,6.4h-2.5c0-2.2-1.8-4-4-4c-1.5,0-2.9,0.8-3.5,2.2c-0.7,1.5-0.5,3.1,0.7,4.6
					c1.3,1.7,2.5,3.6,1.9,5.7c-0.2,1-1.3,3-2.3,4.7c1.6-0.4,3.5-0.6,5,0c2.3,1,4.8,0.5,5.7-0.1l1.4,2c-1.6,1.1-5,1.7-8.1,0.4
					C695.9,67.2,692.4,68.5,691.4,69z"/>
			</g>
			<g>
				<rect x="689.9" y="57.2" class="st5" width="9.9" height="2.5"/>
			</g>
		</g>
		<g class="st4">
			<g>
				<g>
					<rect x="695.4" y="191.3" class="st5" width="2.5" height="12.2"/>
				</g>
				<g>
					<polygon class="st5" points="702.1,179.8 696.7,188.6 691.1,179.8 687.7,179.8 687.7,179.9 695.4,192.1 697.9,192.1 
						705.5,179.8 705.5,179.8 					"/>
				</g>
				<g>
					<rect x="688.9" y="190" class="st5" width="15.2" height="2.5"/>
				</g>
				<g>
					<rect x="688.9" y="194.8" class="st5" width="15.2" height="2.5"/>
				</g>
			</g>
		</g>
		<g class="st4">
			<g>
				<g>
					<rect x="695.3" y="468.9" class="st5" width="2.7" height="12.9"/>
				</g>
				<g>
					<polygon class="st5" points="702.4,456.9 696.7,466.1 690.9,456.9 687.3,456.9 687.2,456.9 695.4,469.8 698,469.8 706,456.9 
						706,456.9 					"/>
				</g>
				<g>
					<rect x="688.5" y="467.6" class="st5" width="16" height="2.7"/>
				</g>
			</g>
		</g>
		<g class="st4">
			<g>
				<g>
					<rect x="478.9" y="321" class="st5" width="19.3" height="2.5"/>
				</g>
				<g>
					<rect x="478.9" y="325.6" class="st5" width="19.3" height="2.5"/>
				</g>
			</g>
			<g>
				<polygon class="st5" points="483.3,335 483.3,318.4 493.5,335 496.2,335 496.2,314 493.7,314 493.7,330.6 483.5,314 480.8,314 
					480.8,335 				"/>
			</g>
		</g>
		<g class="st4">
			<g>
				<rect x="794.8" y="456" class="st5" width="2.7" height="23.7"/>
			</g>
			<g>
				<polygon class="st5" points="806.1,456 795.1,466.7 797.2,469 810.7,456 				"/>
			</g>
			<g>
				<polygon class="st5" points="810.6,479.8 797.2,466.7 795.1,469 805.9,479.8 				"/>
			</g>
			<g>
				<rect x="792.6" y="466.4" class="st5" width="17.9" height="2.7"/>
			</g>
		</g>
		<g class="st4">
			<g>
				<g>
					<path class="st5" d="M798,60.4c2.1-0.2,4.7-0.7,6.5-2.3c1.3-1.1,1.9-2.6,1.9-4.5c0-3.4-2.8-5.9-7.4-6.6l-0.4,2.6
						c2.5,0.4,5.2,1.7,5.2,4c0,1.1-0.3,1.9-1.1,2.5c-1.9,1.8-5.9,1.8-9.1,1.7v1.8l11,11.1h3.7L798,60.4z"/>
				</g>
			</g>
			<g>
				<rect x="791.5" y="47.1" class="st5" width="18.7" height="2.6"/>
			</g>
			<g>
				<rect x="791.5" y="52.7" class="st5" width="18.7" height="2.6"/>
			</g>
		</g>
		<g class="st4">
			<g>
				<polygon class="st5" points="810.5,181.8 806.9,197.1 802.6,181.8 800.2,181.8 795.9,197.1 792.2,181.8 789.7,181.8 
					794.5,202.3 796.9,202.3 801.4,186.7 805.8,202.3 808.2,202.3 813.1,181.8 				"/>
			</g>
			<g>
				<g>
					<rect x="787.9" y="187.9" class="st5" width="26.8" height="2.5"/>
				</g>
				<g>
					<rect x="787.9" y="192.2" class="st5" width="26.8" height="2.5"/>
				</g>
			</g>
		</g>
		<g class="st4">
			<g>
				<g>
					<rect x="584.2" y="457.7" class="st5" width="2.5" height="20.8"/>
				</g>
				<g>
					<path class="st5" d="M596.7,470.7h-2.5v-11.8c-0.2,0-0.6,0-0.7,0c-0.1,0-0.2,0-0.3,0h-8.9v-2.5l9.1,0c0.6,0,1.8-0.1,2.6,0.7
						c0.3,0.3,0.6,0.8,0.6,1.6V470.7z"/>
				</g>
			</g>
			<g>
				<g>
					<rect x="598.6" y="457.7" class="st5" width="2.5" height="20.8"/>
				</g>
				<g>
					<path class="st5" d="M591.5,479.7c-0.7,0-1.6-0.1-2.3-0.7c-0.3-0.3-0.6-0.8-0.6-1.6v-12h2.5v11.8c0.2,0,0.6,0,0.7,0
						c0.1,0,0.2,0,0.3,0h8.9v2.5l-9.1,0C591.8,479.7,591.7,479.7,591.5,479.7z"/>
				</g>
			</g>
		</g>
		<path class="st6" d="M495.8,454.5c-3.6,0-9.6,0-10,12.1h-3.5v3h3.4c-0.3,9.1-2.9,9.1-5,9.1h-0.3v3h0.3c3.7,0,7.6-1,8-12.1h4.4v-3
			h-4.3c0.3-9.1,3.7-9.1,7-9.1h0.3v-3H495.8z"/>
		<g class="st4">
			<g>
				<g>
					<path class="st5" d="M593,325.2h-6.3v-13h6.3c3.6,0,6.5,2.9,6.5,6.5C599.5,322.3,596.5,325.2,593,325.2z M589.1,322.8h3.8
						c2.2,0,4-1.8,4-4c0-2.2-1.8-4-4-4h-3.8V322.8z"/>
				</g>
				<g>
					<path class="st5" d="M594.6,336.7h-7.9v-13.9h7.9c3.8,0,7,3.1,7,7C601.5,333.5,598.4,336.7,594.6,336.7z M589.1,334.2h5.4
						c2.5,0,4.5-2,4.5-4.5c0-2.5-2-4.5-4.5-4.5h-5.4V334.2z"/>
				</g>
			</g>
			<g>
				<rect x="591.3" y="310" class="st5" width="2.5" height="28.9"/>
			</g>
		</g>
		<g class="st4">
			<g>
				<g>
					
						<rect x="785.1" y="322.6" transform="matrix(0.2304 -0.9731 0.9731 0.2304 299.4246 1026.193)" class="st5" width="26.7" height="2.5"/>
				</g>
				<g>
					
						<rect x="789.6" y="322.6" transform="matrix(0.2304 -0.9731 0.9731 0.2304 302.8714 1030.5475)" class="st5" width="26.7" height="2.5"/>
				</g>
			</g>
			<g>
				<path class="st5" d="M801.9,334.4c-2.8,0-5.5-1.1-7.5-3.1c-2-2-3.1-4.7-3.1-7.5c0-2.8,1.1-5.5,3.1-7.5c2-2,4.7-3.1,7.5-3.1
					c2.8,0,5.5,1.1,7.5,3.1l-1.8,1.8c-1.5-1.5-3.6-2.4-5.7-2.4s-4.2,0.8-5.7,2.4c-1.5,1.5-2.4,3.6-2.4,5.7c0,2.2,0.8,4.2,2.4,5.7
					c1.5,1.5,3.6,2.4,5.7,2.4s4.2-0.8,5.7-2.4l1.8,1.8C807.4,333.3,804.8,334.4,801.9,334.4z"/>
			</g>
		</g>
		<g class="st4">
			<g>
				<g>
					<rect x="689.6" y="317.5" class="st5" width="18" height="2.5"/>
				</g>
				<g>
					<rect x="689.7" y="321.6" class="st5" width="18" height="2.5"/>
				</g>
			</g>
			<g>
				<g>
					<path class="st5" d="M698.7,328.6h-7.6V313h7.6c4.3,0,7.8,3.5,7.8,7.8S703,328.6,698.7,328.6z M693.6,326.1h5.1
						c2.9,0,5.3-2.4,5.3-5.3c0-2.9-2.4-5.3-5.3-5.3h-5.1V326.1z"/>
				</g>
				<g>
					<rect x="691.2" y="326.4" class="st5" width="2.5" height="12.1"/>
				</g>
			</g>
		</g>
		<g class="st4">
			<g>
				<g>
					<rect x="480.2" y="196.1" class="st5" width="14.3" height="2.5"/>
				</g>
			</g>
			<g>
				<g>
					<path class="st5" d="M489.8,193.9h-9.6v-2.5h9.6c2.7,0,4.8-2.2,4.8-4.8c0-2.7-2.2-4.8-4.8-4.8h-5.9v-2.5h5.9
						c4,0,7.3,3.3,7.3,7.3C497.1,190.6,493.8,193.9,489.8,193.9z"/>
				</g>
				<g>
					<rect x="482.7" y="179.3" class="st5" width="2.5" height="25.4"/>
				</g>
			</g>
		</g>
		<g class="st4">
			<g>
				<g>
					<rect x="584.3" y="188" class="st5" width="16.4" height="2.5"/>
				</g>
				<g>
					<rect x="584.3" y="192.4" class="st5" width="16.4" height="2.5"/>
				</g>
			</g>
			<g>
				<path class="st5" d="M592.5,203.4c-2.5,0-4.8-1.1-6.1-3c-1.2-1.8-1.4-4.1-0.5-6.1c0.8-1.8,2.4-2.7,3.5-3.3l0.2-0.1
					c1.4-0.8,2.2-1.2,2.2-1.2l0,0c0.1,0,0.8-0.4,2.1-1.2l0.2-0.1c0.9-0.5,2-1.1,2.5-2.2c0.6-1.2,0.5-2.6-0.3-3.7
					c-0.9-1.3-2.5-2-4.4-1.9c-3.9,0.2-4.1,3.6-4.1,4l-2.5,0c0-2.1,1.3-6.2,6.4-6.5c2.8-0.2,5.2,0.9,6.6,2.9c1.2,1.8,1.4,4.1,0.5,6.1
					c-0.8,1.8-2.4,2.7-3.5,3.3l-0.2,0.1c-1.4,0.8-2.2,1.2-2.2,1.2l0,0c-0.1,0-0.8,0.4-2.1,1.2l-0.2,0.1c-0.9,0.5-2,1.1-2.5,2.2
					c-0.6,1.2-0.5,2.6,0.3,3.7c0.9,1.3,2.5,2,4.4,1.9c3.9-0.2,4.1-3.6,4.1-4l2.5,0c0,2.1-1.3,6.2-6.4,6.5
					C592.8,203.4,592.7,203.4,592.5,203.4z"/>
			</g>
		</g>
		<g class="st4">
			<g>
				<rect x="1016.2" y="43.1" class="st5" width="2.5" height="28.7"/>
			</g>
			<g>
				<path class="st5" d="M1017.5,70.1c-0.2,0-0.4,0-0.6,0c-5.4-0.3-6.9-4.4-6.9-6.5l1.2,0l1.2,0c0,0.4,0.2,3.8,4.5,4
					c2.2,0.1,4.1-0.6,5-2c0.7-1,0.7-2.3,0.1-3.4c-0.6-1.1-1.7-1.7-2.7-2.2l-0.3-0.1c-1.5-0.8-2.3-1.2-2.3-1.2l0,0
					c0,0-0.8-0.4-2.4-1.2l-0.2-0.1c-1.2-0.6-2.9-1.5-3.8-3.3c-1-2-0.9-4.1,0.3-5.9c1.4-2.2,4.1-3.3,7.2-3.2c5.4,0.3,6.9,4.4,6.9,6.5
					l-2.5,0c0-0.4-0.2-3.8-4.5-4c-2.2-0.1-4.1,0.6-5,2c-0.7,1-0.7,2.3-0.1,3.4c0.6,1.1,1.7,1.7,2.7,2.2l0.3,0.1
					c1.5,0.8,2.3,1.2,2.3,1.2l0,0c0,0,0.8,0.4,2.4,1.2l0.2,0.1c1.2,0.6,2.9,1.5,3.8,3.3c1,2,0.9,4.1-0.3,5.9
					C1022.8,68.9,1020.4,70.1,1017.5,70.1z"/>
			</g>
		</g>
		<g class="st4">
			<g>
				<g>
					<rect x="902.2" y="54.9" class="st5" width="15.8" height="2.5"/>
				</g>
				<g>
					<rect x="902.2" y="59.7" class="st5" width="15.8" height="2.5"/>
				</g>
			</g>
			<g>
				<path class="st5" d="M916.9,71.6c-3.1,0-6-1.4-8.2-4c-2.1-2.5-3.3-5.8-3.3-9.3c0-3.5,1.2-6.8,3.3-9.3c2.2-2.6,5.1-4,8.2-4
					s6,1.4,8.2,4l-1.9,1.6c-1.7-2-4-3.1-6.3-3.1c-2.4,0-4.6,1.1-6.3,3.1c-1.8,2.1-2.7,4.8-2.7,7.7c0,2.9,1,5.7,2.7,7.7
					c1.7,2,4,3.1,6.3,3.1c2.4,0,4.6-1.1,6.3-3.1l1.9,1.6C922.9,70.2,920,71.6,916.9,71.6z"/>
			</g>
		</g>
		<g class="st4">
			<g>
				<path class="st5" d="M1116.4,69l-1.6-1.8c1.3-2.2,3.4-6,3.7-7c0.3-1-0.4-2.2-1.5-3.6c-1.7-2.2-2.1-5-1-7.3
					c1.1-2.2,3.3-3.6,5.8-3.6c3.5,0,6.4,2.9,6.4,6.4h-2.5c0-2.2-1.8-4-4-4c-1.5,0-2.9,0.8-3.5,2.2c-0.7,1.5-0.5,3.1,0.7,4.6
					c1.3,1.7,2.5,3.6,1.9,5.7c-0.2,1-1.3,3-2.3,4.7c1.6-0.4,3.5-0.6,5,0c2.3,1,4.8,0.5,5.7-0.1l1.4,2c-1.6,1.1-5,1.7-8.1,0.4
					C1120.9,67.2,1117.4,68.5,1116.4,69z"/>
			</g>
			<g>
				<rect x="1114.9" y="57.2" class="st5" width="9.9" height="2.5"/>
			</g>
		</g>
		<g class="st4">
			<g>
				<g>
					<rect x="1120.4" y="191.3" class="st5" width="2.5" height="12.2"/>
				</g>
				<g>
					<polygon class="st5" points="1127.1,179.8 1121.7,188.6 1116.1,179.8 1112.7,179.8 1112.7,179.9 1120.4,192.1 1122.9,192.1 
						1130.5,179.8 1130.5,179.8 					"/>
				</g>
				<g>
					<rect x="1113.9" y="190" class="st5" width="15.2" height="2.5"/>
				</g>
				<g>
					<rect x="1113.9" y="194.8" class="st5" width="15.2" height="2.5"/>
				</g>
			</g>
		</g>
		<g class="st4">
			<g>
				<g>
					<rect x="1120.3" y="468.9" class="st5" width="2.7" height="12.9"/>
				</g>
				<g>
					<polygon class="st5" points="1127.4,456.9 1121.7,466.1 1115.9,456.9 1112.3,456.9 1112.2,456.9 1120.4,469.8 1123,469.8 
						1131,456.9 1131,456.9 					"/>
				</g>
				<g>
					<rect x="1113.5" y="467.6" class="st5" width="16" height="2.7"/>
				</g>
			</g>
		</g>
		<g class="st4">
			<g>
				<g>
					<rect x="903.9" y="321" class="st5" width="19.3" height="2.5"/>
				</g>
				<g>
					<rect x="903.9" y="325.6" class="st5" width="19.3" height="2.5"/>
				</g>
			</g>
			<g>
				<polygon class="st5" points="908.3,335 908.3,318.4 918.5,335 921.2,335 921.2,314 918.7,314 918.7,330.6 908.5,314 905.8,314 
					905.8,335 				"/>
			</g>
		</g>
		<g class="st4">
			<g>
				<rect x="1219.8" y="456" class="st5" width="2.7" height="23.7"/>
			</g>
			<g>
				<polygon class="st5" points="1231.1,456 1220.1,466.7 1222.2,469 1235.7,456 				"/>
			</g>
			<g>
				<polygon class="st5" points="1235.6,479.8 1222.2,466.7 1220.1,469 1230.9,479.8 				"/>
			</g>
			<g>
				<rect x="1217.6" y="466.4" class="st5" width="17.9" height="2.7"/>
			</g>
		</g>
		<g class="st4">
			<g>
				<g>
					<path class="st5" d="M1223,60.4c2.1-0.2,4.7-0.7,6.5-2.3c1.3-1.1,1.9-2.6,1.9-4.5c0-3.4-2.8-5.9-7.4-6.6l-0.4,2.6
						c2.5,0.4,5.2,1.7,5.2,4c0,1.1-0.3,1.9-1.1,2.5c-1.9,1.8-5.9,1.8-9.1,1.7v1.8l11,11.1h3.7L1223,60.4z"/>
				</g>
			</g>
			<g>
				<rect x="1216.5" y="47.1" class="st5" width="18.7" height="2.6"/>
			</g>
			<g>
				<rect x="1216.5" y="52.7" class="st5" width="18.7" height="2.6"/>
			</g>
		</g>
		<g class="st4">
			<g>
				<polygon class="st5" points="1235.5,181.8 1231.9,197.1 1227.6,181.8 1225.2,181.8 1220.9,197.1 1217.2,181.8 1214.7,181.8 
					1219.5,202.3 1221.9,202.3 1226.4,186.7 1230.8,202.3 1233.2,202.3 1238.1,181.8 				"/>
			</g>
			<g>
				<g>
					<rect x="1212.9" y="187.9" class="st5" width="26.8" height="2.5"/>
				</g>
				<g>
					<rect x="1212.9" y="192.2" class="st5" width="26.8" height="2.5"/>
				</g>
			</g>
		</g>
		<g class="st4">
			<g>
				<g>
					<rect x="1009.2" y="457.7" class="st5" width="2.5" height="20.8"/>
				</g>
				<g>
					<path class="st5" d="M1021.7,470.7h-2.5v-11.8c-0.2,0-0.6,0-0.7,0c-0.1,0-0.2,0-0.3,0h-8.9v-2.5l9.1,0c0.6,0,1.8-0.1,2.6,0.7
						c0.3,0.3,0.6,0.8,0.6,1.6V470.7z"/>
				</g>
			</g>
			<g>
				<g>
					<rect x="1023.6" y="457.7" class="st5" width="2.5" height="20.8"/>
				</g>
				<g>
					<path class="st5" d="M1016.5,479.7c-0.7,0-1.6-0.1-2.3-0.7c-0.3-0.3-0.6-0.8-0.6-1.6v-12h2.5v11.8c0.2,0,0.6,0,0.7,0
						c0.1,0,0.2,0,0.3,0h8.9v2.5l-9.1,0C1016.8,479.7,1016.7,479.7,1016.5,479.7z"/>
				</g>
			</g>
		</g>
		<path class="st6" d="M920.8,454.5c-3.6,0-9.6,0-10,12.1h-3.5v3h3.4c-0.3,9.1-2.9,9.1-5,9.1h-0.3v3h0.3c3.7,0,7.6-1,8-12.1h4.4v-3
			h-4.3c0.3-9.1,3.7-9.1,7-9.1h0.3v-3H920.8z"/>
		<g class="st4">
			<g>
				<g>
					<path class="st5" d="M1018,325.2h-6.3v-13h6.3c3.6,0,6.5,2.9,6.5,6.5C1024.5,322.3,1021.5,325.2,1018,325.2z M1014.1,322.8h3.8
						c2.2,0,4-1.8,4-4c0-2.2-1.8-4-4-4h-3.8V322.8z"/>
				</g>
				<g>
					<path class="st5" d="M1019.6,336.7h-7.9v-13.9h7.9c3.8,0,7,3.1,7,7C1026.5,333.5,1023.4,336.7,1019.6,336.7z M1014.1,334.2h5.4
						c2.5,0,4.5-2,4.5-4.5c0-2.5-2-4.5-4.5-4.5h-5.4V334.2z"/>
				</g>
			</g>
			<g>
				<rect x="1016.3" y="310" class="st5" width="2.5" height="28.9"/>
			</g>
		</g>
		<g class="st4">
			<g>
				<g>
					
						<rect x="1210.1" y="322.6" transform="matrix(0.2304 -0.9731 0.9731 0.2304 626.5152 1439.7614)" class="st5" width="26.7" height="2.5"/>
				</g>
				<g>
					
						<rect x="1214.6" y="322.6" transform="matrix(0.2304 -0.9731 0.9731 0.2304 629.9659 1444.1167)" class="st5" width="26.7" height="2.5"/>
				</g>
			</g>
			<g>
				<path class="st5" d="M1226.9,334.4c-2.8,0-5.5-1.1-7.5-3.1c-2-2-3.1-4.7-3.1-7.5c0-2.8,1.1-5.5,3.1-7.5c2-2,4.7-3.1,7.5-3.1
					s5.5,1.1,7.5,3.1l-1.8,1.8c-1.5-1.5-3.6-2.4-5.7-2.4s-4.2,0.8-5.7,2.4c-1.5,1.5-2.4,3.6-2.4,5.7c0,2.2,0.8,4.2,2.4,5.7
					c1.5,1.5,3.6,2.4,5.7,2.4s4.2-0.8,5.7-2.4l1.8,1.8C1232.4,333.3,1229.8,334.4,1226.9,334.4z"/>
			</g>
		</g>
		<g class="st4">
			<g>
				<g>
					<rect x="1114.6" y="317.5" class="st5" width="18" height="2.5"/>
				</g>
				<g>
					<rect x="1114.7" y="321.6" class="st5" width="18" height="2.5"/>
				</g>
			</g>
			<g>
				<g>
					<path class="st5" d="M1123.7,328.6h-7.6V313h7.6c4.3,0,7.8,3.5,7.8,7.8S1128,328.6,1123.7,328.6z M1118.6,326.1h5.1
						c2.9,0,5.3-2.4,5.3-5.3c0-2.9-2.4-5.3-5.3-5.3h-5.1V326.1z"/>
				</g>
				<g>
					<rect x="1116.2" y="326.4" class="st5" width="2.5" height="12.1"/>
				</g>
			</g>
		</g>
		<g class="st4">
			<g>
				<g>
					<rect x="905.2" y="196.1" class="st5" width="14.3" height="2.5"/>
				</g>
			</g>
			<g>
				<g>
					<path class="st5" d="M914.8,193.9h-9.6v-2.5h9.6c2.7,0,4.8-2.2,4.8-4.8c0-2.7-2.2-4.8-4.8-4.8h-5.9v-2.5h5.9
						c4,0,7.3,3.3,7.3,7.3C922.1,190.6,918.8,193.9,914.8,193.9z"/>
				</g>
				<g>
					<rect x="907.7" y="179.3" class="st5" width="2.5" height="25.4"/>
				</g>
			</g>
		</g>
		<g class="st4">
			<g>
				<g>
					<rect x="1009.3" y="188" class="st5" width="16.4" height="2.5"/>
				</g>
				<g>
					<rect x="1009.3" y="192.4" class="st5" width="16.4" height="2.5"/>
				</g>
			</g>
			<g>
				<path class="st5" d="M1017.5,203.4c-2.5,0-4.8-1.1-6.1-3c-1.2-1.8-1.4-4.1-0.5-6.1c0.8-1.8,2.4-2.7,3.5-3.3l0.2-0.1
					c1.4-0.8,2.2-1.2,2.2-1.2l0,0c0.1,0,0.8-0.4,2.1-1.2l0.2-0.1c0.9-0.5,2-1.1,2.5-2.2c0.6-1.2,0.5-2.6-0.3-3.7
					c-0.9-1.3-2.5-2-4.4-1.9c-3.9,0.2-4.1,3.6-4.1,4l-2.5,0c0-2.1,1.3-6.2,6.4-6.5c2.8-0.2,5.2,0.9,6.6,2.9c1.2,1.8,1.4,4.1,0.5,6.1
					c-0.8,1.8-2.4,2.7-3.5,3.3l-0.2,0.1c-1.4,0.8-2.2,1.2-2.2,1.2l0,0c-0.1,0-0.8,0.4-2.1,1.2l-0.2,0.1c-0.9,0.5-2,1.1-2.5,2.2
					c-0.6,1.2-0.5,2.6,0.3,3.7c0.9,1.3,2.5,2,4.4,1.9c3.9-0.2,4.1-3.6,4.1-4l2.5,0c0,2.1-1.3,6.2-6.4,6.5
					C1017.8,203.4,1017.7,203.4,1017.5,203.4z"/>
			</g>
		</g>
		<g class="st4">
			<g>
				<rect x="1441.2" y="43.1" class="st5" width="2.5" height="28.7"/>
			</g>
			<g>
				<path class="st5" d="M1442.5,70.1c-0.2,0-0.4,0-0.6,0c-5.4-0.3-6.9-4.4-6.9-6.5l1.2,0l1.2,0c0,0.4,0.2,3.8,4.5,4
					c2.2,0.1,4.1-0.6,5-2c0.7-1,0.7-2.3,0.1-3.4c-0.6-1.1-1.7-1.7-2.7-2.2l-0.3-0.1c-1.5-0.8-2.3-1.2-2.3-1.2l0,0
					c0,0-0.8-0.4-2.4-1.2l-0.2-0.1c-1.2-0.6-2.9-1.5-3.8-3.3c-1-2-0.9-4.1,0.3-5.9c1.4-2.2,4.1-3.3,7.2-3.2c5.4,0.3,6.9,4.4,6.9,6.5
					l-2.5,0c0-0.4-0.2-3.8-4.5-4c-2.2-0.1-4.1,0.6-5,2c-0.7,1-0.7,2.3-0.2,3.4c0.6,1.1,1.7,1.7,2.7,2.2l0.3,0.1
					c1.5,0.8,2.3,1.2,2.3,1.2l0,0c0,0,0.8,0.4,2.4,1.2l0.2,0.1c1.2,0.6,2.9,1.5,3.8,3.3c1,2,0.9,4.1-0.3,5.9
					C1447.8,68.9,1445.4,70.1,1442.5,70.1z"/>
			</g>
		</g>
		<g class="st4">
			<g>
				<g>
					<rect x="1327.2" y="54.9" class="st5" width="15.8" height="2.5"/>
				</g>
				<g>
					<rect x="1327.2" y="59.7" class="st5" width="15.8" height="2.5"/>
				</g>
			</g>
			<g>
				<path class="st5" d="M1341.9,71.6c-3.1,0-6-1.4-8.2-4c-2.1-2.5-3.3-5.8-3.3-9.3c0-3.5,1.2-6.8,3.3-9.3c2.2-2.6,5.1-4,8.2-4
					s6,1.4,8.2,4l-1.9,1.6c-1.7-2-4-3.1-6.3-3.1c-2.4,0-4.6,1.1-6.3,3.1c-1.8,2.1-2.7,4.8-2.7,7.7c0,2.9,1,5.7,2.7,7.7
					c1.7,2,4,3.1,6.3,3.1c2.4,0,4.6-1.1,6.3-3.1l1.9,1.6C1347.9,70.2,1345,71.6,1341.9,71.6z"/>
			</g>
		</g>
		<g class="st4">
			<g>
				<path class="st5" d="M1541.4,69l-1.6-1.8c1.3-2.2,3.4-6,3.7-7c0.3-1-0.4-2.2-1.5-3.6c-1.7-2.2-2.1-5-1-7.3
					c1.1-2.2,3.3-3.6,5.8-3.6c3.5,0,6.4,2.9,6.4,6.4h-2.5c0-2.2-1.8-4-4-4c-1.5,0-2.9,0.8-3.5,2.2c-0.7,1.5-0.5,3.1,0.7,4.6
					c1.3,1.7,2.5,3.6,1.9,5.7c-0.2,1-1.3,3-2.3,4.7c1.6-0.4,3.5-0.6,5,0c2.3,1,4.8,0.5,5.7-0.1l1.4,2c-1.6,1.1-5,1.7-8.1,0.4
					C1545.9,67.2,1542.4,68.5,1541.4,69z"/>
			</g>
			<g>
				<rect x="1539.9" y="57.2" class="st5" width="9.9" height="2.5"/>
			</g>
		</g>
		<g class="st4">
			<g>
				<g>
					<rect x="1545.4" y="191.3" class="st5" width="2.5" height="12.2"/>
				</g>
				<g>
					<polygon class="st5" points="1552.1,179.8 1546.7,188.6 1541.1,179.8 1537.7,179.8 1537.7,179.9 1545.4,192.1 1547.9,192.1 
						1555.5,179.8 1555.5,179.8 					"/>
				</g>
				<g>
					<rect x="1538.9" y="190" class="st5" width="15.2" height="2.5"/>
				</g>
				<g>
					<rect x="1538.9" y="194.8" class="st5" width="15.2" height="2.5"/>
				</g>
			</g>
		</g>
		<g class="st4">
			<g>
				<g>
					<rect x="1545.3" y="468.9" class="st5" width="2.7" height="12.9"/>
				</g>
				<g>
					<polygon class="st5" points="1552.4,456.9 1546.7,466.1 1540.9,456.9 1537.3,456.9 1537.2,456.9 1545.4,469.8 1548,469.8 
						1556,456.9 1556,456.9 					"/>
				</g>
				<g>
					<rect x="1538.5" y="467.6" class="st5" width="16" height="2.7"/>
				</g>
			</g>
		</g>
		<g class="st4">
			<g>
				<g>
					<rect x="1328.9" y="321" class="st5" width="19.3" height="2.5"/>
				</g>
				<g>
					<rect x="1328.9" y="325.6" class="st5" width="19.3" height="2.5"/>
				</g>
			</g>
			<g>
				<polygon class="st5" points="1333.3,335 1333.3,318.4 1343.5,335 1346.2,335 1346.2,314 1343.7,314 1343.7,330.6 1333.5,314 
					1330.8,314 1330.8,335 				"/>
			</g>
		</g>
		<g class="st4">
			<g>
				<rect x="1644.8" y="456" class="st5" width="2.7" height="23.7"/>
			</g>
			<g>
				<polygon class="st5" points="1656.1,456 1645.1,466.7 1647.2,469 1660.7,456 				"/>
			</g>
			<g>
				<polygon class="st5" points="1660.6,479.8 1647.2,466.7 1645.1,469 1655.9,479.8 				"/>
			</g>
			<g>
				<rect x="1642.6" y="466.4" class="st5" width="17.9" height="2.7"/>
			</g>
		</g>
		<g class="st4">
			<g>
				<g>
					<path class="st5" d="M1648,60.4c2.1-0.2,4.7-0.7,6.5-2.3c1.3-1.1,1.9-2.6,1.9-4.5c0-3.4-2.8-5.9-7.4-6.6l-0.4,2.6
						c2.5,0.4,5.2,1.7,5.2,4c0,1.1-0.3,1.9-1.1,2.5c-1.9,1.8-5.9,1.8-9.1,1.7v1.8l11,11.1h3.7L1648,60.4z"/>
				</g>
			</g>
			<g>
				<rect x="1641.5" y="47.1" class="st5" width="18.7" height="2.6"/>
			</g>
			<g>
				<rect x="1641.5" y="52.7" class="st5" width="18.7" height="2.6"/>
			</g>
		</g>
		<g class="st4">
			<g>
				<polygon class="st5" points="1660.5,181.8 1656.9,197.1 1652.6,181.8 1650.2,181.8 1645.9,197.1 1642.2,181.8 1639.7,181.8 
					1644.5,202.3 1646.9,202.3 1651.4,186.7 1655.8,202.3 1658.2,202.3 1663.1,181.8 				"/>
			</g>
			<g>
				<g>
					<rect x="1637.9" y="187.9" class="st5" width="26.8" height="2.5"/>
				</g>
				<g>
					<rect x="1637.9" y="192.2" class="st5" width="26.8" height="2.5"/>
				</g>
			</g>
		</g>
		<g class="st4">
			<g>
				<g>
					<rect x="1434.2" y="457.7" class="st5" width="2.5" height="20.8"/>
				</g>
				<g>
					<path class="st5" d="M1446.7,470.7h-2.5v-11.8c-0.2,0-0.6,0-0.7,0c-0.1,0-0.2,0-0.3,0h-8.9v-2.5l9.1,0c0.6,0,1.8-0.1,2.6,0.7
						c0.3,0.3,0.6,0.8,0.6,1.6V470.7z"/>
				</g>
			</g>
			<g>
				<g>
					<rect x="1448.6" y="457.7" class="st5" width="2.5" height="20.8"/>
				</g>
				<g>
					<path class="st5" d="M1441.5,479.7c-0.7,0-1.6-0.1-2.3-0.7c-0.3-0.3-0.6-0.8-0.6-1.6v-12h2.5v11.8c0.2,0,0.6,0,0.7,0
						c0.1,0,0.2,0,0.3,0h8.9v2.5l-9.1,0C1441.8,479.7,1441.7,479.7,1441.5,479.7z"/>
				</g>
			</g>
		</g>
		<path class="st6" d="M1345.8,454.5c-3.6,0-9.6,0-10,12.1h-3.5v3h3.4c-0.3,9.1-2.9,9.1-5,9.1h-0.3v3h0.3c3.7,0,7.6-1,8-12.1h4.4v-3
			h-4.3c0.3-9.1,3.7-9.1,7-9.1h0.3v-3H1345.8z"/>
		<g class="st4">
			<g>
				<g>
					<path class="st5" d="M1443,325.2h-6.3v-13h6.3c3.6,0,6.5,2.9,6.5,6.5C1449.5,322.3,1446.5,325.2,1443,325.2z M1439.1,322.8h3.8
						c2.2,0,4-1.8,4-4c0-2.2-1.8-4-4-4h-3.8V322.8z"/>
				</g>
				<g>
					<path class="st5" d="M1444.6,336.7h-7.9v-13.9h7.9c3.8,0,7,3.1,7,7C1451.5,333.5,1448.4,336.7,1444.6,336.7z M1439.1,334.2h5.4
						c2.5,0,4.5-2,4.5-4.5c0-2.5-2-4.5-4.5-4.5h-5.4V334.2z"/>
				</g>
			</g>
			<g>
				<rect x="1441.3" y="310" class="st5" width="2.5" height="28.9"/>
			</g>
		</g>
		<g class="st4">
			<g>
				<g>
					
						<rect x="1635.1" y="322.6" transform="matrix(0.2304 -0.9731 0.9731 0.2304 953.6059 1853.3296)" class="st5" width="26.7" height="2.5"/>
				</g>
				<g>
					
						<rect x="1639.6" y="322.6" transform="matrix(0.2304 -0.9731 0.9731 0.2304 957.0604 1857.6859)" class="st5" width="26.7" height="2.5"/>
				</g>
			</g>
			<g>
				<path class="st5" d="M1651.9,334.4c-2.8,0-5.5-1.1-7.5-3.1c-2-2-3.1-4.7-3.1-7.5c0-2.8,1.1-5.5,3.1-7.5c2-2,4.7-3.1,7.5-3.1
					s5.5,1.1,7.5,3.1l-1.8,1.8c-1.5-1.5-3.6-2.4-5.7-2.4s-4.2,0.8-5.7,2.4c-1.5,1.5-2.4,3.6-2.4,5.7c0,2.2,0.8,4.2,2.4,5.7
					c1.5,1.5,3.6,2.4,5.7,2.4s4.2-0.8,5.7-2.4l1.8,1.8C1657.4,333.3,1654.8,334.4,1651.9,334.4z"/>
			</g>
		</g>
		<g class="st4">
			<g>
				<g>
					<rect x="1539.6" y="317.5" class="st5" width="18" height="2.5"/>
				</g>
				<g>
					<rect x="1539.7" y="321.6" class="st5" width="18" height="2.5"/>
				</g>
			</g>
			<g>
				<g>
					<path class="st5" d="M1548.7,328.6h-7.6V313h7.6c4.3,0,7.8,3.5,7.8,7.8S1553,328.6,1548.7,328.6z M1543.6,326.1h5.1
						c2.9,0,5.3-2.4,5.3-5.3c0-2.9-2.4-5.3-5.3-5.3h-5.1V326.1z"/>
				</g>
				<g>
					<rect x="1541.2" y="326.4" class="st5" width="2.5" height="12.1"/>
				</g>
			</g>
		</g>
		<g class="st4">
			<g>
				<g>
					<rect x="1330.2" y="196.1" class="st5" width="14.3" height="2.5"/>
				</g>
			</g>
			<g>
				<g>
					<path class="st5" d="M1339.8,193.9h-9.6v-2.5h9.6c2.7,0,4.8-2.2,4.8-4.8c0-2.7-2.2-4.8-4.8-4.8h-5.9v-2.5h5.9
						c4,0,7.3,3.3,7.3,7.3C1347.1,190.6,1343.8,193.9,1339.8,193.9z"/>
				</g>
				<g>
					<rect x="1332.7" y="179.3" class="st5" width="2.5" height="25.4"/>
				</g>
			</g>
		</g>
		<g class="st4">
			<g>
				<g>
					<rect x="1434.3" y="188" class="st5" width="16.4" height="2.5"/>
				</g>
				<g>
					<rect x="1434.3" y="192.4" class="st5" width="16.4" height="2.5"/>
				</g>
			</g>
			<g>
				<path class="st5" d="M1442.5,203.4c-2.5,0-4.8-1.1-6.1-3c-1.2-1.8-1.4-4.1-0.5-6.1c0.8-1.8,2.4-2.7,3.5-3.3l0.2-0.1
					c1.4-0.8,2.2-1.2,2.2-1.2l0,0c0.1,0,0.8-0.4,2.1-1.2l0.2-0.1c0.9-0.5,2-1.1,2.5-2.2c0.6-1.2,0.5-2.6-0.3-3.7
					c-0.9-1.3-2.5-2-4.4-1.9c-3.9,0.2-4.1,3.6-4.1,4l-2.5,0c0-2.1,1.3-6.2,6.4-6.5c2.8-0.2,5.2,0.9,6.6,2.9c1.2,1.8,1.4,4.1,0.5,6.1
					c-0.8,1.8-2.4,2.7-3.5,3.3l-0.2,0.1c-1.4,0.8-2.2,1.2-2.2,1.2l0,0c-0.1,0-0.8,0.4-2.1,1.2l-0.2,0.1c-0.9,0.5-2,1.1-2.5,2.2
					c-0.6,1.2-0.5,2.6,0.3,3.7c0.9,1.3,2.5,2,4.4,1.9c3.9-0.2,4.1-3.6,4.1-4l2.5,0c0,2.1-1.3,6.2-6.4,6.5
					C1442.8,203.4,1442.7,203.4,1442.5,203.4z"/>
			</g>
		</g>
		<g class="st4">
			<g>
				<rect x="166.2" y="569.1" class="st5" width="2.5" height="28.7"/>
			</g>
			<g>
				<path class="st5" d="M167.5,596.1c-0.2,0-0.4,0-0.6,0c-5.4-0.3-6.9-4.4-6.9-6.5l1.2,0l1.2,0c0,0.4,0.2,3.8,4.5,4
					c2.2,0.1,4.1-0.6,5-2c0.7-1,0.7-2.3,0.1-3.4c-0.6-1.1-1.7-1.7-2.7-2.2l-0.3-0.1c-1.5-0.8-2.3-1.2-2.3-1.2l0,0
					c0,0-0.8-0.4-2.4-1.2l-0.2-0.1c-1.2-0.6-2.9-1.5-3.8-3.3c-1-2-0.9-4.1,0.3-5.9c1.4-2.2,4.1-3.3,7.2-3.2c5.4,0.3,6.9,4.4,6.9,6.5
					l-2.5,0c0-0.4-0.2-3.8-4.5-4c-2.2-0.1-4.1,0.6-5,2c-0.7,1-0.7,2.3-0.2,3.4c0.6,1.1,1.7,1.7,2.7,2.2l0.3,0.1
					c1.5,0.8,2.3,1.2,2.3,1.2l0,0c0,0,0.8,0.4,2.4,1.2l0.2,0.1c1.2,0.6,2.9,1.5,3.8,3.3c1,2,0.9,4.1-0.3,5.9
					C172.8,594.9,170.4,596.1,167.5,596.1z"/>
			</g>
		</g>
		<g class="st4">
			<g>
				<g>
					<rect x="52.2" y="580.9" class="st5" width="15.8" height="2.5"/>
				</g>
				<g>
					<rect x="52.2" y="585.7" class="st5" width="15.8" height="2.5"/>
				</g>
			</g>
			<g>
				<path class="st5" d="M66.9,597.6c-3.1,0-6-1.4-8.2-4c-2.1-2.5-3.3-5.8-3.3-9.3s1.2-6.8,3.3-9.3c2.2-2.6,5.1-4,8.2-4
					c3.1,0,6,1.4,8.2,4l-1.9,1.6c-1.7-2-4-3.1-6.3-3.1c-2.4,0-4.6,1.1-6.3,3.1c-1.8,2.1-2.7,4.8-2.7,7.7s1,5.7,2.7,7.7
					c1.7,2,4,3.1,6.3,3.1c2.4,0,4.6-1.1,6.3-3.1l1.9,1.6C72.9,596.2,70,597.6,66.9,597.6z"/>
			</g>
		</g>
		<g class="st4">
			<g>
				<path class="st5" d="M266.4,595l-1.6-1.8c1.3-2.2,3.4-6,3.7-7c0.3-1-0.4-2.2-1.5-3.6c-1.7-2.2-2.1-5-1-7.3
					c1.1-2.2,3.3-3.6,5.8-3.6c3.5,0,6.4,2.9,6.4,6.4h-2.5c0-2.2-1.8-4-4-4c-1.5,0-2.9,0.8-3.5,2.2c-0.7,1.5-0.5,3.1,0.7,4.6
					c1.3,1.7,2.5,3.6,1.9,5.7c-0.2,1-1.3,3-2.3,4.7c1.6-0.4,3.5-0.6,5,0c2.3,1,4.8,0.5,5.7-0.1l1.4,2c-1.6,1.1-5,1.7-8.1,0.4
					C270.9,593.2,267.4,594.5,266.4,595z"/>
			</g>
			<g>
				<rect x="264.9" y="583.2" class="st5" width="9.9" height="2.5"/>
			</g>
		</g>
		<g class="st4">
			<g>
				<g>
					<rect x="270.4" y="717.3" class="st5" width="2.5" height="12.2"/>
				</g>
				<g>
					<polygon class="st5" points="277.1,705.8 271.7,714.6 266.1,705.8 262.7,705.8 262.7,705.9 270.4,718.1 272.9,718.1 
						280.5,705.8 280.5,705.8 					"/>
				</g>
				<g>
					<rect x="263.9" y="716" class="st5" width="15.2" height="2.5"/>
				</g>
				<g>
					<rect x="263.9" y="720.8" class="st5" width="15.2" height="2.5"/>
				</g>
			</g>
		</g>
		<g class="st4">
			<g>
				<g>
					<rect x="270.3" y="994.9" class="st5" width="2.7" height="12.9"/>
				</g>
				<g>
					<polygon class="st5" points="277.4,982.9 271.7,992.1 265.9,982.9 262.3,982.9 262.2,982.9 270.4,995.8 273,995.8 281,982.9 
						281,982.9 					"/>
				</g>
				<g>
					<rect x="263.5" y="993.6" class="st5" width="16" height="2.7"/>
				</g>
			</g>
		</g>
		<g class="st4">
			<g>
				<g>
					<rect x="53.9" y="847" class="st5" width="19.3" height="2.5"/>
				</g>
				<g>
					<rect x="53.9" y="851.6" class="st5" width="19.3" height="2.5"/>
				</g>
			</g>
			<g>
				<polygon class="st5" points="58.3,861 58.3,844.4 68.5,861 71.2,861 71.2,840 68.7,840 68.7,856.6 58.5,840 55.8,840 55.8,861 
									"/>
			</g>
		</g>
		<g class="st4">
			<g>
				<rect x="369.8" y="982" class="st5" width="2.7" height="23.7"/>
			</g>
			<g>
				<polygon class="st5" points="381.1,982 370.1,992.7 372.2,995 385.7,982 				"/>
			</g>
			<g>
				<polygon class="st5" points="385.6,1005.8 372.2,992.7 370.1,995 380.9,1005.8 				"/>
			</g>
			<g>
				<rect x="367.6" y="992.4" class="st5" width="17.9" height="2.7"/>
			</g>
		</g>
		<g class="st4">
			<g>
				<g>
					<path class="st5" d="M373,586.4c2.1-0.2,4.7-0.7,6.5-2.3c1.3-1.1,1.9-2.6,1.9-4.5c0-3.4-2.8-5.9-7.4-6.6l-0.4,2.6
						c2.5,0.4,5.2,1.7,5.2,4c0,1.1-0.3,1.9-1.1,2.5c-1.9,1.8-5.9,1.8-9.1,1.7v1.8l11,11.1h3.7L373,586.4z"/>
				</g>
			</g>
			<g>
				<rect x="366.5" y="573.1" class="st5" width="18.7" height="2.6"/>
			</g>
			<g>
				<rect x="366.5" y="578.7" class="st5" width="18.7" height="2.6"/>
			</g>
		</g>
		<g class="st4">
			<g>
				<polygon class="st5" points="385.5,707.8 381.9,723.1 377.6,707.8 375.2,707.8 370.9,723.1 367.2,707.8 364.7,707.8 
					369.5,728.3 371.9,728.3 376.4,712.7 380.8,728.3 383.2,728.3 388.1,707.8 				"/>
			</g>
			<g>
				<g>
					<rect x="362.9" y="713.9" class="st5" width="26.8" height="2.5"/>
				</g>
				<g>
					<rect x="362.9" y="718.2" class="st5" width="26.8" height="2.5"/>
				</g>
			</g>
		</g>
		<g class="st4">
			<g>
				<g>
					<rect x="159.2" y="983.7" class="st5" width="2.5" height="20.8"/>
				</g>
				<g>
					<path class="st5" d="M171.7,996.7h-2.5v-11.8c-0.2,0-0.6,0-0.7,0c-0.1,0-0.2,0-0.3,0h-8.9v-2.5l9.1,0c0.6,0,1.8-0.1,2.6,0.7
						c0.3,0.3,0.6,0.8,0.6,1.6V996.7z"/>
				</g>
			</g>
			<g>
				<g>
					<rect x="173.6" y="983.7" class="st5" width="2.5" height="20.8"/>
				</g>
				<g>
					<path class="st5" d="M166.5,1005.7c-0.7,0-1.6-0.1-2.3-0.7c-0.3-0.3-0.6-0.8-0.6-1.6v-12h2.5v11.8c0.2,0,0.6,0,0.7,0
						c0.1,0,0.2,0,0.3,0h8.9v2.5l-9.1,0C166.8,1005.7,166.7,1005.7,166.5,1005.7z"/>
				</g>
			</g>
		</g>
		<path class="st6" d="M70.8,980.5c-3.6,0-9.6,0-10,12.1h-3.5v3h3.4c-0.3,9.1-2.9,9.1-5,9.1h-0.3v3h0.3c3.7,0,7.6-1,8-12.1h4.4v-3
			h-4.3c0.3-9.1,3.7-9.1,7-9.1h0.3v-3H70.8z"/>
		<g class="st4">
			<g>
				<g>
					<path class="st5" d="M168,851.2h-6.3v-13h6.3c3.6,0,6.5,2.9,6.5,6.5C174.5,848.3,171.5,851.2,168,851.2z M164.1,848.8h3.8
						c2.2,0,4-1.8,4-4c0-2.2-1.8-4-4-4h-3.8V848.8z"/>
				</g>
				<g>
					<path class="st5" d="M169.6,862.7h-7.9v-13.9h7.9c3.8,0,7,3.1,7,7S173.4,862.7,169.6,862.7z M164.1,860.2h5.4
						c2.5,0,4.5-2,4.5-4.5c0-2.5-2-4.5-4.5-4.5h-5.4V860.2z"/>
				</g>
			</g>
			<g>
				<rect x="166.3" y="836" class="st5" width="2.5" height="28.9"/>
			</g>
		</g>
		<g class="st4">
			<g>
				<g>
					
						<rect x="360.1" y="848.6" transform="matrix(0.2304 -0.9731 0.9731 0.2304 -539.5178 1017.4474)" class="st5" width="26.7" height="2.5"/>
				</g>
				<g>
					
						<rect x="364.6" y="848.6" transform="matrix(0.2304 -0.9731 0.9731 0.2304 -536.0759 1021.8058)" class="st5" width="26.7" height="2.5"/>
				</g>
			</g>
			<g>
				<path class="st5" d="M376.9,860.4c-2.8,0-5.5-1.1-7.5-3.1c-2-2-3.1-4.7-3.1-7.5c0-2.8,1.1-5.5,3.1-7.5c2-2,4.7-3.1,7.5-3.1
					s5.5,1.1,7.5,3.1l-1.8,1.8c-1.5-1.5-3.6-2.4-5.7-2.4s-4.2,0.8-5.7,2.4c-1.5,1.5-2.4,3.6-2.4,5.7c0,2.2,0.8,4.2,2.4,5.7
					c1.5,1.5,3.6,2.4,5.7,2.4s4.2-0.8,5.7-2.4l1.8,1.8C382.4,859.3,379.8,860.4,376.9,860.4z"/>
			</g>
		</g>
		<g class="st4">
			<g>
				<g>
					<rect x="264.6" y="843.5" class="st5" width="18" height="2.5"/>
				</g>
				<g>
					<rect x="264.7" y="847.6" class="st5" width="18" height="2.5"/>
				</g>
			</g>
			<g>
				<g>
					<path class="st5" d="M273.7,854.6h-7.6V839h7.6c4.3,0,7.8,3.5,7.8,7.8C281.5,851.1,278,854.6,273.7,854.6z M268.6,852.1h5.1
						c2.9,0,5.3-2.4,5.3-5.3c0-2.9-2.4-5.3-5.3-5.3h-5.1V852.1z"/>
				</g>
				<g>
					<rect x="266.2" y="852.4" class="st5" width="2.5" height="12.1"/>
				</g>
			</g>
		</g>
		<g class="st4">
			<g>
				<g>
					<rect x="55.2" y="722.1" class="st5" width="14.3" height="2.5"/>
				</g>
			</g>
			<g>
				<g>
					<path class="st5" d="M64.8,719.9h-9.6v-2.5h9.6c2.7,0,4.8-2.2,4.8-4.8c0-2.7-2.2-4.8-4.8-4.8h-5.9v-2.5h5.9
						c4,0,7.3,3.3,7.3,7.3S68.8,719.9,64.8,719.9z"/>
				</g>
				<g>
					<rect x="57.7" y="705.3" class="st5" width="2.5" height="25.4"/>
				</g>
			</g>
		</g>
		<g class="st4">
			<g>
				<g>
					<rect x="159.3" y="714" class="st5" width="16.4" height="2.5"/>
				</g>
				<g>
					<rect x="159.3" y="718.4" class="st5" width="16.4" height="2.5"/>
				</g>
			</g>
			<g>
				<path class="st5" d="M167.5,729.4c-2.5,0-4.8-1.1-6.1-3c-1.2-1.8-1.4-4.1-0.5-6.1c0.8-1.8,2.4-2.7,3.5-3.3l0.2-0.1
					c1.4-0.8,2.2-1.2,2.2-1.2l0,0c0.1,0,0.8-0.4,2.1-1.2l0.2-0.1c0.9-0.5,2-1.1,2.5-2.2c0.6-1.2,0.5-2.6-0.3-3.7
					c-0.9-1.3-2.5-2-4.4-1.9c-3.9,0.2-4.1,3.6-4.1,4l-2.5,0c0-2.1,1.3-6.2,6.4-6.5c2.8-0.2,5.2,0.9,6.6,2.9c1.2,1.8,1.4,4.1,0.5,6.1
					c-0.8,1.8-2.4,2.7-3.5,3.3l-0.2,0.1c-1.4,0.8-2.2,1.2-2.2,1.2l0,0c-0.1,0-0.8,0.4-2.1,1.2l-0.2,0.1c-0.9,0.5-2,1.1-2.5,2.2
					c-0.6,1.2-0.5,2.6,0.3,3.7c0.9,1.3,2.5,2,4.4,1.9c3.9-0.2,4.1-3.6,4.1-4l2.5,0c0,2.1-1.3,6.2-6.4,6.5
					C167.8,729.4,167.7,729.4,167.5,729.4z"/>
			</g>
		</g>
		<g class="st4">
			<g>
				<rect x="591.2" y="569.1" class="st5" width="2.5" height="28.7"/>
			</g>
			<g>
				<path class="st5" d="M592.5,596.1c-0.2,0-0.4,0-0.6,0c-5.4-0.3-6.9-4.4-6.9-6.5l1.2,0l1.2,0c0,0.4,0.2,3.8,4.5,4
					c2.2,0.1,4.1-0.6,5-2c0.7-1,0.7-2.3,0.1-3.4c-0.6-1.1-1.7-1.7-2.7-2.2l-0.3-0.1c-1.5-0.8-2.3-1.2-2.3-1.2l0,0
					c0,0-0.8-0.4-2.4-1.2l-0.2-0.1c-1.2-0.6-2.9-1.5-3.8-3.3c-1-2-0.9-4.1,0.3-5.9c1.4-2.2,4.1-3.3,7.2-3.2c5.4,0.3,6.9,4.4,6.9,6.5
					l-2.5,0c0-0.4-0.2-3.8-4.5-4c-2.2-0.1-4.1,0.6-5,2c-0.7,1-0.7,2.3-0.1,3.4c0.6,1.1,1.7,1.7,2.7,2.2l0.3,0.1
					c1.5,0.8,2.3,1.2,2.3,1.2l0,0c0,0,0.8,0.4,2.4,1.2l0.2,0.1c1.2,0.6,2.9,1.5,3.8,3.3c1,2,0.9,4.1-0.3,5.9
					C597.8,594.9,595.4,596.1,592.5,596.1z"/>
			</g>
		</g>
		<g class="st4">
			<g>
				<g>
					<rect x="477.2" y="580.9" class="st5" width="15.8" height="2.5"/>
				</g>
				<g>
					<rect x="477.2" y="585.7" class="st5" width="15.8" height="2.5"/>
				</g>
			</g>
			<g>
				<path class="st5" d="M491.9,597.6c-3.1,0-6-1.4-8.2-4c-2.1-2.5-3.3-5.8-3.3-9.3s1.2-6.8,3.3-9.3c2.2-2.6,5.1-4,8.2-4
					s6,1.4,8.2,4l-1.9,1.6c-1.7-2-4-3.1-6.3-3.1c-2.4,0-4.6,1.1-6.3,3.1c-1.8,2.1-2.7,4.8-2.7,7.7s1,5.7,2.7,7.7
					c1.7,2,4,3.1,6.3,3.1c2.4,0,4.6-1.1,6.3-3.1l1.9,1.6C497.9,596.2,495,597.6,491.9,597.6z"/>
			</g>
		</g>
		<g class="st4">
			<g>
				<path class="st5" d="M691.4,595l-1.6-1.8c1.3-2.2,3.4-6,3.7-7c0.3-1-0.4-2.2-1.5-3.6c-1.7-2.2-2.1-5-1-7.3
					c1.1-2.2,3.3-3.6,5.8-3.6c3.5,0,6.4,2.9,6.4,6.4h-2.5c0-2.2-1.8-4-4-4c-1.5,0-2.9,0.8-3.5,2.2c-0.7,1.5-0.5,3.1,0.7,4.6
					c1.3,1.7,2.5,3.6,1.9,5.7c-0.2,1-1.3,3-2.3,4.7c1.6-0.4,3.5-0.6,5,0c2.3,1,4.8,0.5,5.7-0.1l1.4,2c-1.6,1.1-5,1.7-8.1,0.4
					C695.9,593.2,692.4,594.5,691.4,595z"/>
			</g>
			<g>
				<rect x="689.9" y="583.2" class="st5" width="9.9" height="2.5"/>
			</g>
		</g>
		<g class="st4">
			<g>
				<g>
					<rect x="695.4" y="717.3" class="st5" width="2.5" height="12.2"/>
				</g>
				<g>
					<polygon class="st5" points="702.1,705.8 696.7,714.6 691.1,705.8 687.7,705.8 687.7,705.9 695.4,718.1 697.9,718.1 
						705.5,705.8 705.5,705.8 					"/>
				</g>
				<g>
					<rect x="688.9" y="716" class="st5" width="15.2" height="2.5"/>
				</g>
				<g>
					<rect x="688.9" y="720.8" class="st5" width="15.2" height="2.5"/>
				</g>
			</g>
		</g>
		<g class="st4">
			<g>
				<g>
					<rect x="695.3" y="994.9" class="st5" width="2.7" height="12.9"/>
				</g>
				<g>
					<polygon class="st5" points="702.4,982.9 696.7,992.1 690.9,982.9 687.3,982.9 687.2,982.9 695.4,995.8 698,995.8 706,982.9 
						706,982.9 					"/>
				</g>
				<g>
					<rect x="688.5" y="993.6" class="st5" width="16" height="2.7"/>
				</g>
			</g>
		</g>
		<g class="st4">
			<g>
				<g>
					<rect x="478.9" y="847" class="st5" width="19.3" height="2.5"/>
				</g>
				<g>
					<rect x="478.9" y="851.6" class="st5" width="19.3" height="2.5"/>
				</g>
			</g>
			<g>
				<polygon class="st5" points="483.3,861 483.3,844.4 493.5,861 496.2,861 496.2,840 493.7,840 493.7,856.6 483.5,840 480.8,840 
					480.8,861 				"/>
			</g>
		</g>
		<g class="st4">
			<g>
				<rect x="794.8" y="982" class="st5" width="2.7" height="23.7"/>
			</g>
			<g>
				<polygon class="st5" points="806.1,982 795.1,992.7 797.2,995 810.7,982 				"/>
			</g>
			<g>
				<polygon class="st5" points="810.6,1005.8 797.2,992.7 795.1,995 805.9,1005.8 				"/>
			</g>
			<g>
				<rect x="792.6" y="992.4" class="st5" width="17.9" height="2.7"/>
			</g>
		</g>
		<g class="st4">
			<g>
				<g>
					<path class="st5" d="M798,586.4c2.1-0.2,4.7-0.7,6.5-2.3c1.3-1.1,1.9-2.6,1.9-4.5c0-3.4-2.8-5.9-7.4-6.6l-0.4,2.6
						c2.5,0.4,5.2,1.7,5.2,4c0,1.1-0.3,1.9-1.1,2.5c-1.9,1.8-5.9,1.8-9.1,1.7v1.8l11,11.1h3.7L798,586.4z"/>
				</g>
			</g>
			<g>
				<rect x="791.5" y="573.1" class="st5" width="18.7" height="2.6"/>
			</g>
			<g>
				<rect x="791.5" y="578.7" class="st5" width="18.7" height="2.6"/>
			</g>
		</g>
		<g class="st4">
			<g>
				<polygon class="st5" points="810.5,707.8 806.9,723.1 802.6,707.8 800.2,707.8 795.9,723.1 792.2,707.8 789.7,707.8 
					794.5,728.3 796.9,728.3 801.4,712.7 805.8,728.3 808.2,728.3 813.1,707.8 				"/>
			</g>
			<g>
				<g>
					<rect x="787.9" y="713.9" class="st5" width="26.8" height="2.5"/>
				</g>
				<g>
					<rect x="787.9" y="718.2" class="st5" width="26.8" height="2.5"/>
				</g>
			</g>
		</g>
		<g class="st4">
			<g>
				<g>
					<rect x="584.2" y="983.7" class="st5" width="2.5" height="20.8"/>
				</g>
				<g>
					<path class="st5" d="M596.7,996.7h-2.5v-11.8c-0.2,0-0.6,0-0.7,0c-0.1,0-0.2,0-0.3,0h-8.9v-2.5l9.1,0c0.6,0,1.8-0.1,2.6,0.7
						c0.3,0.3,0.6,0.8,0.6,1.6V996.7z"/>
				</g>
			</g>
			<g>
				<g>
					<rect x="598.6" y="983.7" class="st5" width="2.5" height="20.8"/>
				</g>
				<g>
					<path class="st5" d="M591.5,1005.7c-0.7,0-1.6-0.1-2.3-0.7c-0.3-0.3-0.6-0.8-0.6-1.6v-12h2.5v11.8c0.2,0,0.6,0,0.7,0
						c0.1,0,0.2,0,0.3,0h8.9v2.5l-9.1,0C591.8,1005.7,591.7,1005.7,591.5,1005.7z"/>
				</g>
			</g>
		</g>
		<path class="st6" d="M495.8,980.5c-3.6,0-9.6,0-10,12.1h-3.5v3h3.4c-0.3,9.1-2.9,9.1-5,9.1h-0.3v3h0.3c3.7,0,7.6-1,8-12.1h4.4v-3
			h-4.3c0.3-9.1,3.7-9.1,7-9.1h0.3v-3H495.8z"/>
		<g class="st4">
			<g>
				<g>
					<path class="st5" d="M593,851.2h-6.3v-13h6.3c3.6,0,6.5,2.9,6.5,6.5C599.5,848.3,596.5,851.2,593,851.2z M589.1,848.8h3.8
						c2.2,0,4-1.8,4-4c0-2.2-1.8-4-4-4h-3.8V848.8z"/>
				</g>
				<g>
					<path class="st5" d="M594.6,862.7h-7.9v-13.9h7.9c3.8,0,7,3.1,7,7S598.4,862.7,594.6,862.7z M589.1,860.2h5.4
						c2.5,0,4.5-2,4.5-4.5c0-2.5-2-4.5-4.5-4.5h-5.4V860.2z"/>
				</g>
			</g>
			<g>
				<rect x="591.3" y="836" class="st5" width="2.5" height="28.9"/>
			</g>
		</g>
		<g class="st4">
			<g>
				<g>
					
						<rect x="785.1" y="848.6" transform="matrix(0.2304 -0.9731 0.9731 0.2304 -212.4271 1431.0157)" class="st5" width="26.7" height="2.5"/>
				</g>
				<g>
					
						<rect x="789.6" y="848.6" transform="matrix(0.2304 -0.9731 0.9731 0.2304 -208.9814 1435.375)" class="st5" width="26.7" height="2.5"/>
				</g>
			</g>
			<g>
				<path class="st5" d="M801.9,860.4c-2.8,0-5.5-1.1-7.5-3.1c-2-2-3.1-4.7-3.1-7.5c0-2.8,1.1-5.5,3.1-7.5c2-2,4.7-3.1,7.5-3.1
					c2.8,0,5.5,1.1,7.5,3.1l-1.8,1.8c-1.5-1.5-3.6-2.4-5.7-2.4s-4.2,0.8-5.7,2.4c-1.5,1.5-2.4,3.6-2.4,5.7c0,2.2,0.8,4.2,2.4,5.7
					c1.5,1.5,3.6,2.4,5.7,2.4s4.2-0.8,5.7-2.4l1.8,1.8C807.4,859.3,804.8,860.4,801.9,860.4z"/>
			</g>
		</g>
		<g class="st4">
			<g>
				<g>
					<rect x="689.6" y="843.5" class="st5" width="18" height="2.5"/>
				</g>
				<g>
					<rect x="689.7" y="847.6" class="st5" width="18" height="2.5"/>
				</g>
			</g>
			<g>
				<g>
					<path class="st5" d="M698.7,854.6h-7.6V839h7.6c4.3,0,7.8,3.5,7.8,7.8C706.5,851.1,703,854.6,698.7,854.6z M693.6,852.1h5.1
						c2.9,0,5.3-2.4,5.3-5.3c0-2.9-2.4-5.3-5.3-5.3h-5.1V852.1z"/>
				</g>
				<g>
					<rect x="691.2" y="852.4" class="st5" width="2.5" height="12.1"/>
				</g>
			</g>
		</g>
		<g class="st4">
			<g>
				<g>
					<rect x="480.2" y="722.1" class="st5" width="14.3" height="2.5"/>
				</g>
			</g>
			<g>
				<g>
					<path class="st5" d="M489.8,719.9h-9.6v-2.5h9.6c2.7,0,4.8-2.2,4.8-4.8c0-2.7-2.2-4.8-4.8-4.8h-5.9v-2.5h5.9
						c4,0,7.3,3.3,7.3,7.3S493.8,719.9,489.8,719.9z"/>
				</g>
				<g>
					<rect x="482.7" y="705.3" class="st5" width="2.5" height="25.4"/>
				</g>
			</g>
		</g>
		<g class="st4">
			<g>
				<g>
					<rect x="584.3" y="714" class="st5" width="16.4" height="2.5"/>
				</g>
				<g>
					<rect x="584.3" y="718.4" class="st5" width="16.4" height="2.5"/>
				</g>
			</g>
			<g>
				<path class="st5" d="M592.5,729.4c-2.5,0-4.8-1.1-6.1-3c-1.2-1.8-1.4-4.1-0.5-6.1c0.8-1.8,2.4-2.7,3.5-3.3l0.2-0.1
					c1.4-0.8,2.2-1.2,2.2-1.2l0,0c0.1,0,0.8-0.4,2.1-1.2l0.2-0.1c0.9-0.5,2-1.1,2.5-2.2c0.6-1.2,0.5-2.6-0.3-3.7
					c-0.9-1.3-2.5-2-4.4-1.9c-3.9,0.2-4.1,3.6-4.1,4l-2.5,0c0-2.1,1.3-6.2,6.4-6.5c2.8-0.2,5.2,0.9,6.6,2.9c1.2,1.8,1.4,4.1,0.5,6.1
					c-0.8,1.8-2.4,2.7-3.5,3.3l-0.2,0.1c-1.4,0.8-2.2,1.2-2.2,1.2l0,0c-0.1,0-0.8,0.4-2.1,1.2l-0.2,0.1c-0.9,0.5-2,1.1-2.5,2.2
					c-0.6,1.2-0.5,2.6,0.3,3.7c0.9,1.3,2.5,2,4.4,1.9c3.9-0.2,4.1-3.6,4.1-4l2.5,0c0,2.1-1.3,6.2-6.4,6.5
					C592.8,729.4,592.7,729.4,592.5,729.4z"/>
			</g>
		</g>
		<g class="st4">
			<g>
				<rect x="1016.2" y="569.1" class="st5" width="2.5" height="28.7"/>
			</g>
			<g>
				<path class="st5" d="M1017.5,596.1c-0.2,0-0.4,0-0.6,0c-5.4-0.3-6.9-4.4-6.9-6.5l1.2,0l1.2,0c0,0.4,0.2,3.8,4.5,4
					c2.2,0.1,4.1-0.6,5-2c0.7-1,0.7-2.3,0.1-3.4c-0.6-1.1-1.7-1.7-2.7-2.2l-0.3-0.1c-1.5-0.8-2.3-1.2-2.3-1.2l0,0
					c0,0-0.8-0.4-2.4-1.2l-0.2-0.1c-1.2-0.6-2.9-1.5-3.8-3.3c-1-2-0.9-4.1,0.3-5.9c1.4-2.2,4.1-3.3,7.2-3.2c5.4,0.3,6.9,4.4,6.9,6.5
					l-2.5,0c0-0.4-0.2-3.8-4.5-4c-2.2-0.1-4.1,0.6-5,2c-0.7,1-0.7,2.3-0.1,3.4c0.6,1.1,1.7,1.7,2.7,2.2l0.3,0.1
					c1.5,0.8,2.3,1.2,2.3,1.2l0,0c0,0,0.8,0.4,2.4,1.2l0.2,0.1c1.2,0.6,2.9,1.5,3.8,3.3c1,2,0.9,4.1-0.3,5.9
					C1022.8,594.9,1020.4,596.1,1017.5,596.1z"/>
			</g>
		</g>
		<g class="st4">
			<g>
				<g>
					<rect x="902.2" y="580.9" class="st5" width="15.8" height="2.5"/>
				</g>
				<g>
					<rect x="902.2" y="585.7" class="st5" width="15.8" height="2.5"/>
				</g>
			</g>
			<g>
				<path class="st5" d="M916.9,597.6c-3.1,0-6-1.4-8.2-4c-2.1-2.5-3.3-5.8-3.3-9.3s1.2-6.8,3.3-9.3c2.2-2.6,5.1-4,8.2-4
					s6,1.4,8.2,4l-1.9,1.6c-1.7-2-4-3.1-6.3-3.1c-2.4,0-4.6,1.1-6.3,3.1c-1.8,2.1-2.7,4.8-2.7,7.7s1,5.7,2.7,7.7
					c1.7,2,4,3.1,6.3,3.1c2.4,0,4.6-1.1,6.3-3.1l1.9,1.6C922.9,596.2,920,597.6,916.9,597.6z"/>
			</g>
		</g>
		<g class="st4">
			<g>
				<path class="st5" d="M1116.4,595l-1.6-1.8c1.3-2.2,3.4-6,3.7-7c0.3-1-0.4-2.2-1.5-3.6c-1.7-2.2-2.1-5-1-7.3
					c1.1-2.2,3.3-3.6,5.8-3.6c3.5,0,6.4,2.9,6.4,6.4h-2.5c0-2.2-1.8-4-4-4c-1.5,0-2.9,0.8-3.5,2.2c-0.7,1.5-0.5,3.1,0.7,4.6
					c1.3,1.7,2.5,3.6,1.9,5.7c-0.2,1-1.3,3-2.3,4.7c1.6-0.4,3.5-0.6,5,0c2.3,1,4.8,0.5,5.7-0.1l1.4,2c-1.6,1.1-5,1.7-8.1,0.4
					C1120.9,593.2,1117.4,594.5,1116.4,595z"/>
			</g>
			<g>
				<rect x="1114.9" y="583.2" class="st5" width="9.9" height="2.5"/>
			</g>
		</g>
		<g class="st4">
			<g>
				<g>
					<rect x="1120.4" y="717.3" class="st5" width="2.5" height="12.2"/>
				</g>
				<g>
					<polygon class="st5" points="1127.1,705.8 1121.7,714.6 1116.1,705.8 1112.7,705.8 1112.7,705.9 1120.4,718.1 1122.9,718.1 
						1130.5,705.8 1130.5,705.8 					"/>
				</g>
				<g>
					<rect x="1113.9" y="716" class="st5" width="15.2" height="2.5"/>
				</g>
				<g>
					<rect x="1113.9" y="720.8" class="st5" width="15.2" height="2.5"/>
				</g>
			</g>
		</g>
		<g class="st4">
			<g>
				<g>
					<rect x="1120.3" y="994.9" class="st5" width="2.7" height="12.9"/>
				</g>
				<g>
					<polygon class="st5" points="1127.4,982.9 1121.7,992.1 1115.9,982.9 1112.3,982.9 1112.2,982.9 1120.4,995.8 1123,995.8 
						1131,982.9 1131,982.9 					"/>
				</g>
				<g>
					<rect x="1113.5" y="993.6" class="st5" width="16" height="2.7"/>
				</g>
			</g>
		</g>
		<g class="st4">
			<g>
				<g>
					<rect x="903.9" y="847" class="st5" width="19.3" height="2.5"/>
				</g>
				<g>
					<rect x="903.9" y="851.6" class="st5" width="19.3" height="2.5"/>
				</g>
			</g>
			<g>
				<polygon class="st5" points="908.3,861 908.3,844.4 918.5,861 921.2,861 921.2,840 918.7,840 918.7,856.6 908.5,840 905.8,840 
					905.8,861 				"/>
			</g>
		</g>
		<g class="st4">
			<g>
				<rect x="1219.8" y="982" class="st5" width="2.7" height="23.7"/>
			</g>
			<g>
				<polygon class="st5" points="1231.1,982 1220.1,992.7 1222.2,995 1235.7,982 				"/>
			</g>
			<g>
				<polygon class="st5" points="1235.6,1005.8 1222.2,992.7 1220.1,995 1230.9,1005.8 				"/>
			</g>
			<g>
				<rect x="1217.6" y="992.4" class="st5" width="17.9" height="2.7"/>
			</g>
		</g>
		<g class="st4">
			<g>
				<g>
					<path class="st5" d="M1223,586.4c2.1-0.2,4.7-0.7,6.5-2.3c1.3-1.1,1.9-2.6,1.9-4.5c0-3.4-2.8-5.9-7.4-6.6l-0.4,2.6
						c2.5,0.4,5.2,1.7,5.2,4c0,1.1-0.3,1.9-1.1,2.5c-1.9,1.8-5.9,1.8-9.1,1.7v1.8l11,11.1h3.7L1223,586.4z"/>
				</g>
			</g>
			<g>
				<rect x="1216.5" y="573.1" class="st5" width="18.7" height="2.6"/>
			</g>
			<g>
				<rect x="1216.5" y="578.7" class="st5" width="18.7" height="2.6"/>
			</g>
		</g>
		<g class="st4">
			<g>
				<polygon class="st5" points="1235.5,707.8 1231.9,723.1 1227.6,707.8 1225.2,707.8 1220.9,723.1 1217.2,707.8 1214.7,707.8 
					1219.5,728.3 1221.9,728.3 1226.4,712.7 1230.8,728.3 1233.2,728.3 1238.1,707.8 				"/>
			</g>
			<g>
				<g>
					<rect x="1212.9" y="713.9" class="st5" width="26.8" height="2.5"/>
				</g>
				<g>
					<rect x="1212.9" y="718.2" class="st5" width="26.8" height="2.5"/>
				</g>
			</g>
		</g>
		<g class="st4">
			<g>
				<g>
					<rect x="1009.2" y="983.7" class="st5" width="2.5" height="20.8"/>
				</g>
				<g>
					<path class="st5" d="M1021.7,996.7h-2.5v-11.8c-0.2,0-0.6,0-0.7,0c-0.1,0-0.2,0-0.3,0h-8.9v-2.5l9.1,0c0.6,0,1.8-0.1,2.6,0.7
						c0.3,0.3,0.6,0.8,0.6,1.6V996.7z"/>
				</g>
			</g>
			<g>
				<g>
					<rect x="1023.6" y="983.7" class="st5" width="2.5" height="20.8"/>
				</g>
				<g>
					<path class="st5" d="M1016.5,1005.7c-0.7,0-1.6-0.1-2.3-0.7c-0.3-0.3-0.6-0.8-0.6-1.6v-12h2.5v11.8c0.2,0,0.6,0,0.7,0
						c0.1,0,0.2,0,0.3,0h8.9v2.5l-9.1,0C1016.8,1005.7,1016.7,1005.7,1016.5,1005.7z"/>
				</g>
			</g>
		</g>
		<path class="st6" d="M920.8,980.5c-3.6,0-9.6,0-10,12.1h-3.5v3h3.4c-0.3,9.1-2.9,9.1-5,9.1h-0.3v3h0.3c3.7,0,7.6-1,8-12.1h4.4v-3
			h-4.3c0.3-9.1,3.7-9.1,7-9.1h0.3v-3H920.8z"/>
		<g class="st4">
			<g>
				<g>
					<path class="st5" d="M1018,851.2h-6.3v-13h6.3c3.6,0,6.5,2.9,6.5,6.5C1024.5,848.3,1021.5,851.2,1018,851.2z M1014.1,848.8h3.8
						c2.2,0,4-1.8,4-4c0-2.2-1.8-4-4-4h-3.8V848.8z"/>
				</g>
				<g>
					<path class="st5" d="M1019.6,862.7h-7.9v-13.9h7.9c3.8,0,7,3.1,7,7S1023.4,862.7,1019.6,862.7z M1014.1,860.2h5.4
						c2.5,0,4.5-2,4.5-4.5c0-2.5-2-4.5-4.5-4.5h-5.4V860.2z"/>
				</g>
			</g>
			<g>
				<rect x="1016.3" y="836" class="st5" width="2.5" height="28.9"/>
			</g>
		</g>
		<g class="st4">
			<g>
				<g>
					
						<rect x="1210.1" y="848.6" transform="matrix(0.2304 -0.9731 0.9731 0.2304 114.6636 1844.5841)" class="st5" width="26.7" height="2.5"/>
				</g>
				<g>
					
						<rect x="1214.6" y="848.6" transform="matrix(0.2304 -0.9731 0.9731 0.2304 118.1132 1848.9442)" class="st5" width="26.7" height="2.5"/>
				</g>
			</g>
			<g>
				<path class="st5" d="M1226.9,860.4c-2.8,0-5.5-1.1-7.5-3.1c-2-2-3.1-4.7-3.1-7.5c0-2.8,1.1-5.5,3.1-7.5c2-2,4.7-3.1,7.5-3.1
					s5.5,1.1,7.5,3.1l-1.8,1.8c-1.5-1.5-3.6-2.4-5.7-2.4s-4.2,0.8-5.7,2.4c-1.5,1.5-2.4,3.6-2.4,5.7c0,2.2,0.8,4.2,2.4,5.7
					c1.5,1.5,3.6,2.4,5.7,2.4s4.2-0.8,5.7-2.4l1.8,1.8C1232.4,859.3,1229.8,860.4,1226.9,860.4z"/>
			</g>
		</g>
		<g class="st4">
			<g>
				<g>
					<rect x="1114.6" y="843.5" class="st5" width="18" height="2.5"/>
				</g>
				<g>
					<rect x="1114.7" y="847.6" class="st5" width="18" height="2.5"/>
				</g>
			</g>
			<g>
				<g>
					<path class="st5" d="M1123.7,854.6h-7.6V839h7.6c4.3,0,7.8,3.5,7.8,7.8C1131.5,851.1,1128,854.6,1123.7,854.6z M1118.6,852.1
						h5.1c2.9,0,5.3-2.4,5.3-5.3c0-2.9-2.4-5.3-5.3-5.3h-5.1V852.1z"/>
				</g>
				<g>
					<rect x="1116.2" y="852.4" class="st5" width="2.5" height="12.1"/>
				</g>
			</g>
		</g>
		<g class="st4">
			<g>
				<g>
					<rect x="905.2" y="722.1" class="st5" width="14.3" height="2.5"/>
				</g>
			</g>
			<g>
				<g>
					<path class="st5" d="M914.8,719.9h-9.6v-2.5h9.6c2.7,0,4.8-2.2,4.8-4.8c0-2.7-2.2-4.8-4.8-4.8h-5.9v-2.5h5.9
						c4,0,7.3,3.3,7.3,7.3S918.8,719.9,914.8,719.9z"/>
				</g>
				<g>
					<rect x="907.7" y="705.3" class="st5" width="2.5" height="25.4"/>
				</g>
			</g>
		</g>
		<g class="st4">
			<g>
				<g>
					<rect x="1009.3" y="714" class="st5" width="16.4" height="2.5"/>
				</g>
				<g>
					<rect x="1009.3" y="718.4" class="st5" width="16.4" height="2.5"/>
				</g>
			</g>
			<g>
				<path class="st5" d="M1017.5,729.4c-2.5,0-4.8-1.1-6.1-3c-1.2-1.8-1.4-4.1-0.5-6.1c0.8-1.8,2.4-2.7,3.5-3.3l0.2-0.1
					c1.4-0.8,2.2-1.2,2.2-1.2l0,0c0.1,0,0.8-0.4,2.1-1.2l0.2-0.1c0.9-0.5,2-1.1,2.5-2.2c0.6-1.2,0.5-2.6-0.3-3.7
					c-0.9-1.3-2.5-2-4.4-1.9c-3.9,0.2-4.1,3.6-4.1,4l-2.5,0c0-2.1,1.3-6.2,6.4-6.5c2.8-0.2,5.2,0.9,6.6,2.9c1.2,1.8,1.4,4.1,0.5,6.1
					c-0.8,1.8-2.4,2.7-3.5,3.3l-0.2,0.1c-1.4,0.8-2.2,1.2-2.2,1.2l0,0c-0.1,0-0.8,0.4-2.1,1.2l-0.2,0.1c-0.9,0.5-2,1.1-2.5,2.2
					c-0.6,1.2-0.5,2.6,0.3,3.7c0.9,1.3,2.5,2,4.4,1.9c3.9-0.2,4.1-3.6,4.1-4l2.5,0c0,2.1-1.3,6.2-6.4,6.5
					C1017.8,729.4,1017.7,729.4,1017.5,729.4z"/>
			</g>
		</g>
		<g class="st4">
			<g>
				<rect x="1441.2" y="569.1" class="st5" width="2.5" height="28.7"/>
			</g>
			<g>
				<path class="st5" d="M1442.5,596.1c-0.2,0-0.4,0-0.6,0c-5.4-0.3-6.9-4.4-6.9-6.5l1.2,0l1.2,0c0,0.4,0.2,3.8,4.5,4
					c2.2,0.1,4.1-0.6,5-2c0.7-1,0.7-2.3,0.1-3.4c-0.6-1.1-1.7-1.7-2.7-2.2l-0.3-0.1c-1.5-0.8-2.3-1.2-2.3-1.2l0,0
					c0,0-0.8-0.4-2.4-1.2l-0.2-0.1c-1.2-0.6-2.9-1.5-3.8-3.3c-1-2-0.9-4.1,0.3-5.9c1.4-2.2,4.1-3.3,7.2-3.2c5.4,0.3,6.9,4.4,6.9,6.5
					l-2.5,0c0-0.4-0.2-3.8-4.5-4c-2.2-0.1-4.1,0.6-5,2c-0.7,1-0.7,2.3-0.2,3.4c0.6,1.1,1.7,1.7,2.7,2.2l0.3,0.1
					c1.5,0.8,2.3,1.2,2.3,1.2l0,0c0,0,0.8,0.4,2.4,1.2l0.2,0.1c1.2,0.6,2.9,1.5,3.8,3.3c1,2,0.9,4.1-0.3,5.9
					C1447.8,594.9,1445.4,596.1,1442.5,596.1z"/>
			</g>
		</g>
		<g class="st4">
			<g>
				<g>
					<rect x="1327.2" y="580.9" class="st5" width="15.8" height="2.5"/>
				</g>
				<g>
					<rect x="1327.2" y="585.7" class="st5" width="15.8" height="2.5"/>
				</g>
			</g>
			<g>
				<path class="st5" d="M1341.9,597.6c-3.1,0-6-1.4-8.2-4c-2.1-2.5-3.3-5.8-3.3-9.3s1.2-6.8,3.3-9.3c2.2-2.6,5.1-4,8.2-4
					s6,1.4,8.2,4l-1.9,1.6c-1.7-2-4-3.1-6.3-3.1c-2.4,0-4.6,1.1-6.3,3.1c-1.8,2.1-2.7,4.8-2.7,7.7s1,5.7,2.7,7.7
					c1.7,2,4,3.1,6.3,3.1c2.4,0,4.6-1.1,6.3-3.1l1.9,1.6C1347.9,596.2,1345,597.6,1341.9,597.6z"/>
			</g>
		</g>
		<g class="st4">
			<g>
				<path class="st5" d="M1541.4,595l-1.6-1.8c1.3-2.2,3.4-6,3.7-7c0.3-1-0.4-2.2-1.5-3.6c-1.7-2.2-2.1-5-1-7.3
					c1.1-2.2,3.3-3.6,5.8-3.6c3.5,0,6.4,2.9,6.4,6.4h-2.5c0-2.2-1.8-4-4-4c-1.5,0-2.9,0.8-3.5,2.2c-0.7,1.5-0.5,3.1,0.7,4.6
					c1.3,1.7,2.5,3.6,1.9,5.7c-0.2,1-1.3,3-2.3,4.7c1.6-0.4,3.5-0.6,5,0c2.3,1,4.8,0.5,5.7-0.1l1.4,2c-1.6,1.1-5,1.7-8.1,0.4
					C1545.9,593.2,1542.4,594.5,1541.4,595z"/>
			</g>
			<g>
				<rect x="1539.9" y="583.2" class="st5" width="9.9" height="2.5"/>
			</g>
		</g>
		<g class="st4">
			<g>
				<g>
					<rect x="1545.4" y="717.3" class="st5" width="2.5" height="12.2"/>
				</g>
				<g>
					<polygon class="st5" points="1552.1,705.8 1546.7,714.6 1541.1,705.8 1537.7,705.8 1537.7,705.9 1545.4,718.1 1547.9,718.1 
						1555.5,705.8 1555.5,705.8 					"/>
				</g>
				<g>
					<rect x="1538.9" y="716" class="st5" width="15.2" height="2.5"/>
				</g>
				<g>
					<rect x="1538.9" y="720.8" class="st5" width="15.2" height="2.5"/>
				</g>
			</g>
		</g>
		<g class="st4">
			<g>
				<g>
					<rect x="1545.3" y="994.9" class="st5" width="2.7" height="12.9"/>
				</g>
				<g>
					<polygon class="st5" points="1552.4,982.9 1546.7,992.1 1540.9,982.9 1537.3,982.9 1537.2,982.9 1545.4,995.8 1548,995.8 
						1556,982.9 1556,982.9 					"/>
				</g>
				<g>
					<rect x="1538.5" y="993.6" class="st5" width="16" height="2.7"/>
				</g>
			</g>
		</g>
		<g class="st4">
			<g>
				<g>
					<rect x="1328.9" y="847" class="st5" width="19.3" height="2.5"/>
				</g>
				<g>
					<rect x="1328.9" y="851.6" class="st5" width="19.3" height="2.5"/>
				</g>
			</g>
			<g>
				<polygon class="st5" points="1333.3,861 1333.3,844.4 1343.5,861 1346.2,861 1346.2,840 1343.7,840 1343.7,856.6 1333.5,840 
					1330.8,840 1330.8,861 				"/>
			</g>
		</g>
		<g class="st4">
			<g>
				<rect x="1644.8" y="982" class="st5" width="2.7" height="23.7"/>
			</g>
			<g>
				<polygon class="st5" points="1656.1,982 1645.1,992.7 1647.2,995 1660.7,982 				"/>
			</g>
			<g>
				<polygon class="st5" points="1660.6,1005.8 1647.2,992.7 1645.1,995 1655.9,1005.8 				"/>
			</g>
			<g>
				<rect x="1642.6" y="992.4" class="st5" width="17.9" height="2.7"/>
			</g>
		</g>
		<g class="st4">
			<g>
				<g>
					<path class="st5" d="M1648,586.4c2.1-0.2,4.7-0.7,6.5-2.3c1.3-1.1,1.9-2.6,1.9-4.5c0-3.4-2.8-5.9-7.4-6.6l-0.4,2.6
						c2.5,0.4,5.2,1.7,5.2,4c0,1.1-0.3,1.9-1.1,2.5c-1.9,1.8-5.9,1.8-9.1,1.7v1.8l11,11.1h3.7L1648,586.4z"/>
				</g>
			</g>
			<g>
				<rect x="1641.5" y="573.1" class="st5" width="18.7" height="2.6"/>
			</g>
			<g>
				<rect x="1641.5" y="578.7" class="st5" width="18.7" height="2.6"/>
			</g>
		</g>
		<g class="st4">
			<g>
				<polygon class="st5" points="1660.5,707.8 1656.9,723.1 1652.6,707.8 1650.2,707.8 1645.9,723.1 1642.2,707.8 1639.7,707.8 
					1644.5,728.3 1646.9,728.3 1651.4,712.7 1655.8,728.3 1658.2,728.3 1663.1,707.8 				"/>
			</g>
			<g>
				<g>
					<rect x="1637.9" y="713.9" class="st5" width="26.8" height="2.5"/>
				</g>
				<g>
					<rect x="1637.9" y="718.2" class="st5" width="26.8" height="2.5"/>
				</g>
			</g>
		</g>
		<g class="st4">
			<g>
				<g>
					<rect x="1434.2" y="983.7" class="st5" width="2.5" height="20.8"/>
				</g>
				<g>
					<path class="st5" d="M1446.7,996.7h-2.5v-11.8c-0.2,0-0.6,0-0.7,0c-0.1,0-0.2,0-0.3,0h-8.9v-2.5l9.1,0c0.6,0,1.8-0.1,2.6,0.7
						c0.3,0.3,0.6,0.8,0.6,1.6V996.7z"/>
				</g>
			</g>
			<g>
				<g>
					<rect x="1448.6" y="983.7" class="st5" width="2.5" height="20.8"/>
				</g>
				<g>
					<path class="st5" d="M1441.5,1005.7c-0.7,0-1.6-0.1-2.3-0.7c-0.3-0.3-0.6-0.8-0.6-1.6v-12h2.5v11.8c0.2,0,0.6,0,0.7,0
						c0.1,0,0.2,0,0.3,0h8.9v2.5l-9.1,0C1441.8,1005.7,1441.7,1005.7,1441.5,1005.7z"/>
				</g>
			</g>
		</g>
		<path class="st6" d="M1345.8,980.5c-3.6,0-9.6,0-10,12.1h-3.5v3h3.4c-0.3,9.1-2.9,9.1-5,9.1h-0.3v3h0.3c3.7,0,7.6-1,8-12.1h4.4v-3
			h-4.3c0.3-9.1,3.7-9.1,7-9.1h0.3v-3H1345.8z"/>
		<g class="st4">
			<g>
				<g>
					<path class="st5" d="M1443,851.2h-6.3v-13h6.3c3.6,0,6.5,2.9,6.5,6.5C1449.5,848.3,1446.5,851.2,1443,851.2z M1439.1,848.8h3.8
						c2.2,0,4-1.8,4-4c0-2.2-1.8-4-4-4h-3.8V848.8z"/>
				</g>
				<g>
					<path class="st5" d="M1444.6,862.7h-7.9v-13.9h7.9c3.8,0,7,3.1,7,7S1448.4,862.7,1444.6,862.7z M1439.1,860.2h5.4
						c2.5,0,4.5-2,4.5-4.5c0-2.5-2-4.5-4.5-4.5h-5.4V860.2z"/>
				</g>
			</g>
			<g>
				<rect x="1441.3" y="836" class="st5" width="2.5" height="28.9"/>
			</g>
		</g>
		<g class="st4">
			<g>
				<g>
					
						<rect x="1635.1" y="848.6" transform="matrix(0.2304 -0.9731 0.9731 0.2304 441.7543 2258.1523)" class="st5" width="26.7" height="2.5"/>
				</g>
				<g>
					
						<rect x="1639.6" y="848.6" transform="matrix(0.2304 -0.9731 0.9731 0.2304 445.2077 2262.5134)" class="st5" width="26.7" height="2.5"/>
				</g>
			</g>
			<g>
				<path class="st5" d="M1651.9,860.4c-2.8,0-5.5-1.1-7.5-3.1c-2-2-3.1-4.7-3.1-7.5c0-2.8,1.1-5.5,3.1-7.5c2-2,4.7-3.1,7.5-3.1
					s5.5,1.1,7.5,3.1l-1.8,1.8c-1.5-1.5-3.6-2.4-5.7-2.4s-4.2,0.8-5.7,2.4c-1.5,1.5-2.4,3.6-2.4,5.7c0,2.2,0.8,4.2,2.4,5.7
					c1.5,1.5,3.6,2.4,5.7,2.4s4.2-0.8,5.7-2.4l1.8,1.8C1657.4,859.3,1654.8,860.4,1651.9,860.4z"/>
			</g>
		</g>
		<g class="st4">
			<g>
				<g>
					<rect x="1539.6" y="843.5" class="st5" width="18" height="2.5"/>
				</g>
				<g>
					<rect x="1539.7" y="847.6" class="st5" width="18" height="2.5"/>
				</g>
			</g>
			<g>
				<g>
					<path class="st5" d="M1548.7,854.6h-7.6V839h7.6c4.3,0,7.8,3.5,7.8,7.8C1556.5,851.1,1553,854.6,1548.7,854.6z M1543.6,852.1
						h5.1c2.9,0,5.3-2.4,5.3-5.3c0-2.9-2.4-5.3-5.3-5.3h-5.1V852.1z"/>
				</g>
				<g>
					<rect x="1541.2" y="852.4" class="st5" width="2.5" height="12.1"/>
				</g>
			</g>
		</g>
		<g class="st4">
			<g>
				<path class="st5" d="M1743.4,69l-1.6-1.8c1.3-2.2,3.4-6,3.7-7c0.3-1-0.4-2.2-1.5-3.6c-1.7-2.2-2.1-5-1-7.3
					c1.1-2.2,3.3-3.6,5.8-3.6c3.5,0,6.4,2.9,6.4,6.4h-2.5c0-2.2-1.8-4-4-4c-1.5,0-2.9,0.8-3.5,2.2c-0.7,1.5-0.5,3.1,0.7,4.6
					c1.3,1.7,2.5,3.6,1.9,5.7c-0.2,1-1.3,3-2.3,4.7c1.6-0.4,3.5-0.6,5,0c2.3,1,4.8,0.5,5.7-0.1l1.4,2c-1.6,1.1-5,1.7-8.1,0.4
					C1747.9,67.2,1744.4,68.5,1743.4,69z"/>
			</g>
			<g>
				<rect x="1741.9" y="57.2" class="st5" width="9.9" height="2.5"/>
			</g>
		</g>
		<g class="st4">
			<g>
				<g>
					<rect x="1747.4" y="191.3" class="st5" width="2.5" height="12.2"/>
				</g>
				<g>
					<polygon class="st5" points="1754.1,179.8 1748.7,188.6 1743.1,179.8 1739.7,179.8 1739.7,179.9 1747.4,192.1 1749.9,192.1 
						1757.5,179.8 1757.5,179.8 					"/>
				</g>
				<g>
					<rect x="1740.9" y="190" class="st5" width="15.2" height="2.5"/>
				</g>
				<g>
					<rect x="1740.9" y="194.8" class="st5" width="15.2" height="2.5"/>
				</g>
			</g>
		</g>
		<g class="st4">
			<g>
				<g>
					<rect x="1747.3" y="468.9" class="st5" width="2.7" height="12.9"/>
				</g>
				<g>
					<polygon class="st5" points="1754.4,456.9 1748.7,466.1 1742.9,456.9 1739.3,456.9 1739.2,456.9 1747.4,469.8 1750,469.8 
						1758,456.9 1758,456.9 					"/>
				</g>
				<g>
					<rect x="1740.5" y="467.6" class="st5" width="16" height="2.7"/>
				</g>
			</g>
		</g>
		<g class="st4">
			<g>
				<rect x="1846.8" y="456" class="st5" width="2.7" height="23.7"/>
			</g>
			<g>
				<polygon class="st5" points="1858.1,456 1847.1,466.7 1849.2,469 1862.7,456 				"/>
			</g>
			<g>
				<polygon class="st5" points="1862.6,479.8 1849.2,466.7 1847.1,469 1857.9,479.8 				"/>
			</g>
			<g>
				<rect x="1844.6" y="466.4" class="st5" width="17.9" height="2.7"/>
			</g>
		</g>
		<g class="st4">
			<g>
				<g>
					<path class="st5" d="M1850,60.4c2.1-0.2,4.7-0.7,6.5-2.3c1.3-1.1,1.9-2.6,1.9-4.5c0-3.4-2.8-5.9-7.4-6.6l-0.4,2.6
						c2.5,0.4,5.2,1.7,5.2,4c0,1.1-0.3,1.9-1.1,2.5c-1.9,1.8-5.9,1.8-9.1,1.7v1.8l11,11.1h3.7L1850,60.4z"/>
				</g>
			</g>
			<g>
				<rect x="1843.5" y="47.1" class="st5" width="18.7" height="2.6"/>
			</g>
			<g>
				<rect x="1843.5" y="52.7" class="st5" width="18.7" height="2.6"/>
			</g>
		</g>
		<g class="st4">
			<g>
				<polygon class="st5" points="1862.5,181.8 1858.9,197.1 1854.6,181.8 1852.2,181.8 1847.9,197.1 1844.2,181.8 1841.7,181.8 
					1846.5,202.3 1848.9,202.3 1853.4,186.7 1857.8,202.3 1860.2,202.3 1865.1,181.8 				"/>
			</g>
			<g>
				<g>
					<rect x="1839.9" y="187.9" class="st5" width="26.8" height="2.5"/>
				</g>
				<g>
					<rect x="1839.9" y="192.2" class="st5" width="26.8" height="2.5"/>
				</g>
			</g>
		</g>
		<g class="st4">
			<g>
				<g>
					
						<rect x="1837.1" y="322.6" transform="matrix(0.2304 -0.9731 0.9731 0.2304 1109.0702 2049.8962)" class="st5" width="26.7" height="2.5"/>
				</g>
				<g>
					
						<rect x="1841.6" y="322.6" transform="matrix(0.2304 -0.9731 0.9731 0.2304 1112.5265 2054.2529)" class="st5" width="26.7" height="2.5"/>
				</g>
			</g>
			<g>
				<path class="st5" d="M1853.9,334.4c-2.8,0-5.5-1.1-7.5-3.1c-2-2-3.1-4.7-3.1-7.5c0-2.8,1.1-5.5,3.1-7.5c2-2,4.7-3.1,7.5-3.1
					s5.5,1.1,7.5,3.1l-1.8,1.8c-1.5-1.5-3.6-2.4-5.7-2.4s-4.2,0.8-5.7,2.4c-1.5,1.5-2.4,3.6-2.4,5.7c0,2.2,0.8,4.2,2.4,5.7
					c1.5,1.5,3.6,2.4,5.7,2.4s4.2-0.8,5.7-2.4l1.8,1.8C1859.4,333.3,1856.8,334.4,1853.9,334.4z"/>
			</g>
		</g>
		<g class="st4">
			<g>
				<g>
					<rect x="1741.6" y="317.5" class="st5" width="18" height="2.5"/>
				</g>
				<g>
					<rect x="1741.7" y="321.6" class="st5" width="18" height="2.5"/>
				</g>
			</g>
			<g>
				<g>
					<path class="st5" d="M1750.7,328.6h-7.6V313h7.6c4.3,0,7.8,3.5,7.8,7.8S1755,328.6,1750.7,328.6z M1745.6,326.1h5.1
						c2.9,0,5.3-2.4,5.3-5.3c0-2.9-2.4-5.3-5.3-5.3h-5.1V326.1z"/>
				</g>
				<g>
					<rect x="1743.2" y="326.4" class="st5" width="2.5" height="12.1"/>
				</g>
			</g>
		</g>
		<g class="st4">
			<g>
				<path class="st5" d="M1743.4,595l-1.6-1.8c1.3-2.2,3.4-6,3.7-7c0.3-1-0.4-2.2-1.5-3.6c-1.7-2.2-2.1-5-1-7.3
					c1.1-2.2,3.3-3.6,5.8-3.6c3.5,0,6.4,2.9,6.4,6.4h-2.5c0-2.2-1.8-4-4-4c-1.5,0-2.9,0.8-3.5,2.2c-0.7,1.5-0.5,3.1,0.7,4.6
					c1.3,1.7,2.5,3.6,1.9,5.7c-0.2,1-1.3,3-2.3,4.7c1.6-0.4,3.5-0.6,5,0c2.3,1,4.8,0.5,5.7-0.1l1.4,2c-1.6,1.1-5,1.7-8.1,0.4
					C1747.9,593.2,1744.4,594.5,1743.4,595z"/>
			</g>
			<g>
				<rect x="1741.9" y="583.2" class="st5" width="9.9" height="2.5"/>
			</g>
		</g>
		<g class="st4">
			<g>
				<g>
					<rect x="1747.4" y="717.3" class="st5" width="2.5" height="12.2"/>
				</g>
				<g>
					<polygon class="st5" points="1754.1,705.8 1748.7,714.6 1743.1,705.8 1739.7,705.8 1739.7,705.9 1747.4,718.1 1749.9,718.1 
						1757.5,705.8 1757.5,705.8 					"/>
				</g>
				<g>
					<rect x="1740.9" y="716" class="st5" width="15.2" height="2.5"/>
				</g>
				<g>
					<rect x="1740.9" y="720.8" class="st5" width="15.2" height="2.5"/>
				</g>
			</g>
		</g>
		<g class="st4">
			<g>
				<g>
					<rect x="1747.3" y="994.9" class="st5" width="2.7" height="12.9"/>
				</g>
				<g>
					<polygon class="st5" points="1754.4,982.9 1748.7,992.1 1742.9,982.9 1739.3,982.9 1739.2,982.9 1747.4,995.8 1750,995.8 
						1758,982.9 1758,982.9 					"/>
				</g>
				<g>
					<rect x="1740.5" y="993.6" class="st5" width="16" height="2.7"/>
				</g>
			</g>
		</g>
		<g class="st4">
			<g>
				<rect x="1846.8" y="982" class="st5" width="2.7" height="23.7"/>
			</g>
			<g>
				<polygon class="st5" points="1858.1,982 1847.1,992.7 1849.2,995 1862.7,982 				"/>
			</g>
			<g>
				<polygon class="st5" points="1862.6,1005.8 1849.2,992.7 1847.1,995 1857.9,1005.8 				"/>
			</g>
			<g>
				<rect x="1844.6" y="992.4" class="st5" width="17.9" height="2.7"/>
			</g>
		</g>
		<g class="st4">
			<g>
				<g>
					<path class="st5" d="M1850,586.4c2.1-0.2,4.7-0.7,6.5-2.3c1.3-1.1,1.9-2.6,1.9-4.5c0-3.4-2.8-5.9-7.4-6.6l-0.4,2.6
						c2.5,0.4,5.2,1.7,5.2,4c0,1.1-0.3,1.9-1.1,2.5c-1.9,1.8-5.9,1.8-9.1,1.7v1.8l11,11.1h3.7L1850,586.4z"/>
				</g>
			</g>
			<g>
				<rect x="1843.5" y="573.1" class="st5" width="18.7" height="2.6"/>
			</g>
			<g>
				<rect x="1843.5" y="578.7" class="st5" width="18.7" height="2.6"/>
			</g>
		</g>
		<g class="st4">
			<g>
				<polygon class="st5" points="1862.5,707.8 1858.9,723.1 1854.6,707.8 1852.2,707.8 1847.9,723.1 1844.2,707.8 1841.7,707.8 
					1846.5,728.3 1848.9,728.3 1853.4,712.7 1857.8,728.3 1860.2,728.3 1865.1,707.8 				"/>
			</g>
			<g>
				<g>
					<rect x="1839.9" y="713.9" class="st5" width="26.8" height="2.5"/>
				</g>
				<g>
					<rect x="1839.9" y="718.2" class="st5" width="26.8" height="2.5"/>
				</g>
			</g>
		</g>
		<g class="st4">
			<g>
				<g>
					
						<rect x="1837.1" y="848.6" transform="matrix(0.2304 -0.9731 0.9731 0.2304 597.2186 2454.719)" class="st5" width="26.7" height="2.5"/>
				</g>
				<g>
					
						<rect x="1841.6" y="848.6" transform="matrix(0.2304 -0.9731 0.9731 0.2304 600.6738 2459.0806)" class="st5" width="26.7" height="2.5"/>
				</g>
			</g>
			<g>
				<path class="st5" d="M1853.9,860.4c-2.8,0-5.5-1.1-7.5-3.1c-2-2-3.1-4.7-3.1-7.5c0-2.8,1.1-5.5,3.1-7.5c2-2,4.7-3.1,7.5-3.1
					s5.5,1.1,7.5,3.1l-1.8,1.8c-1.5-1.5-3.6-2.4-5.7-2.4s-4.2,0.8-5.7,2.4c-1.5,1.5-2.4,3.6-2.4,5.7c0,2.2,0.8,4.2,2.4,5.7
					c1.5,1.5,3.6,2.4,5.7,2.4s4.2-0.8,5.7-2.4l1.8,1.8C1859.4,859.3,1856.8,860.4,1853.9,860.4z"/>
			</g>
		</g>
		<g class="st4">
			<g>
				<g>
					<rect x="1741.6" y="843.5" class="st5" width="18" height="2.5"/>
				</g>
				<g>
					<rect x="1741.7" y="847.6" class="st5" width="18" height="2.5"/>
				</g>
			</g>
			<g>
				<g>
					<path class="st5" d="M1750.7,854.6h-7.6V839h7.6c4.3,0,7.8,3.5,7.8,7.8C1758.5,851.1,1755,854.6,1750.7,854.6z M1745.6,852.1
						h5.1c2.9,0,5.3-2.4,5.3-5.3c0-2.9-2.4-5.3-5.3-5.3h-5.1V852.1z"/>
				</g>
				<g>
					<rect x="1743.2" y="852.4" class="st5" width="2.5" height="12.1"/>
				</g>
			</g>
		</g>
		<g class="st4">
			<g>
				<g>
					<rect x="1330.2" y="722.1" class="st5" width="14.3" height="2.5"/>
				</g>
			</g>
			<g>
				<g>
					<path class="st5" d="M1339.8,719.9h-9.6v-2.5h9.6c2.7,0,4.8-2.2,4.8-4.8c0-2.7-2.2-4.8-4.8-4.8h-5.9v-2.5h5.9
						c4,0,7.3,3.3,7.3,7.3S1343.8,719.9,1339.8,719.9z"/>
				</g>
				<g>
					<rect x="1332.7" y="705.3" class="st5" width="2.5" height="25.4"/>
				</g>
			</g>
		</g>
		<g class="st4">
			<g>
				<g>
					<rect x="1434.3" y="714" class="st5" width="16.4" height="2.5"/>
				</g>
				<g>
					<rect x="1434.3" y="718.4" class="st5" width="16.4" height="2.5"/>
				</g>
			</g>
			<g>
				<path class="st5" d="M1442.5,729.4c-2.5,0-4.8-1.1-6.1-3c-1.2-1.8-1.4-4.1-0.5-6.1c0.8-1.8,2.4-2.7,3.5-3.3l0.2-0.1
					c1.4-0.8,2.2-1.2,2.2-1.2l0,0c0.1,0,0.8-0.4,2.1-1.2l0.2-0.1c0.9-0.5,2-1.1,2.5-2.2c0.6-1.2,0.5-2.6-0.3-3.7
					c-0.9-1.3-2.5-2-4.4-1.9c-3.9,0.2-4.1,3.6-4.1,4l-2.5,0c0-2.1,1.3-6.2,6.4-6.5c2.8-0.2,5.2,0.9,6.6,2.9c1.2,1.8,1.4,4.1,0.5,6.1
					c-0.8,1.8-2.4,2.7-3.5,3.3l-0.2,0.1c-1.4,0.8-2.2,1.2-2.2,1.2l0,0c-0.1,0-0.8,0.4-2.1,1.2l-0.2,0.1c-0.9,0.5-2,1.1-2.5,2.2
					c-0.6,1.2-0.5,2.6,0.3,3.7c0.9,1.3,2.5,2,4.4,1.9c3.9-0.2,4.1-3.6,4.1-4l2.5,0c0,2.1-1.3,6.2-6.4,6.5
					C1442.8,729.4,1442.7,729.4,1442.5,729.4z"/>
			</g>
		</g>
	</g>
</g>
<g id="Layer_2">
</g>
</svg>
