<svg xmlns="http://www.w3.org/2000/svg" xmlns:xlink="http://www.w3.org/1999/xlink" viewBox="0 0 1920 1080"><defs><style>.cls-1,.cls-15,.cls-9{fill:none;}.cls-2{isolation:isolate;}.cls-3{opacity:0.5;}.cls-4{fill:url(#Degradado_sin_nombre_11);}.cls-5{fill:url(#Degradado_sin_nombre_11-2);}.cls-6{fill:url(#Degradado_sin_nombre_11-3);}.cls-7{opacity:0.57;}.cls-12,.cls-18,.cls-7{mix-blend-mode:soft-light;}.cls-8{clip-path:url(#clip-path);}.cls-15,.cls-9{stroke:#fff;stroke-miterlimit:10;}.cls-10{fill:url(#Degradado_sin_nombre_11-4);}.cls-11{fill:url(#Degradado_sin_nombre_11-5);}.cls-13{clip-path:url(#clip-path-2);}.cls-14{fill:url(#Degradado_sin_nombre_11-6);}.cls-15{stroke-width:2.61px;}.cls-16{fill:#fff;}.cls-17,.cls-18{opacity:0.56;}</style><linearGradient id="Degradado_sin_nombre_11" x1="1941.85" y1="-142.51" x2="744.71" y2="689.65" gradientTransform="translate(420 1500) rotate(-90)" gradientUnits="userSpaceOnUse"><stop offset="0" stop-color="#0f4c83"/><stop offset="1" stop-color="#003566"/></linearGradient><linearGradient id="Degradado_sin_nombre_11-2" x1="1383.46" y1="-225.57" x2="187.96" y2="762.58" gradientTransform="matrix(1, 0, 0, 1, 0, 0)" xlink:href="#Degradado_sin_nombre_11"/><linearGradient id="Degradado_sin_nombre_11-3" x1="1202.07" y1="988.8" x2="1919.19" y2="219.83" gradientTransform="matrix(1, 0, 0, 1, 0, 0)" xlink:href="#Degradado_sin_nombre_11"/><clipPath id="clip-path"><path class="cls-1" d="M1772.43,127.16a1146.1,1146.1,0,0,0-151.73,64.2c-50.59,25.83-99.55,55.44-144.35,90.44-40.4,31.55-78.34,67.93-106.14,111.3-24.37,38-40,82.06-37.51,127.69,1.41,25.26,7.72,51.51,20.46,73.5,13.45,23.21,34.75,39.79,60.24,47.9,25.7,8.18,53.37,8.43,80,5.77,28.88-2.89,57.32-9.44,85.26-17.13,28.84-8,57.18-17.56,85.93-25.84,36.16-10.41,73-18.93,110.26-24,48.27-6.6,97.36-6.94,145.14,1.5V91.72q-8.85.87-17.65,2.17C1858.1,100.4,1814.68,112.79,1772.43,127.16Z"/></clipPath><linearGradient id="Degradado_sin_nombre_11-4" x1="1617.77" y1="845.48" x2="2157.77" y2="-9.88" gradientTransform="matrix(1, 0, 0, 1, 0, 0)" xlink:href="#Degradado_sin_nombre_11"/><linearGradient id="Degradado_sin_nombre_11-5" x1="-147.85" y1="362.33" x2="531.85" y2="1042.03" gradientTransform="matrix(1, 0, 0, 1, 0, 0)" xlink:href="#Degradado_sin_nombre_11"/><clipPath id="clip-path-2"><path class="cls-1" d="M596.27,1097.12c7-42.89,6.53-120.43-34.35-150.09-26.5-19.23-56.52-15.8-85.07-4-67.76,28-106.82,63.43-183.34,73.78-128.95,17.43-135.75-106-39.06-166,33.69-20.89,66.74-42.11,101.14-61.76C506.94,702.66,728.43,523,628.78,334.49c-36.84-69.7-113.2-112.29-195.56-100.27a133.33,133.33,0,0,0-19.11,4.42C6.56,360.77,1.93,34.54,1.93,34.54V1107.83c0-.19,547.45.17,592.28.22Q595.38,1102.61,596.27,1097.12Z"/></clipPath><linearGradient id="Degradado_sin_nombre_11-6" x1="900.59" y1="417.53" x2="706.2" y2="-165.65" gradientTransform="translate(804.25 630.41) rotate(180)" xlink:href="#Degradado_sin_nombre_11"/></defs><title>fondo</title><g class="cls-2"><g id="BACKGROUND"><g class="cls-3"><rect class="cls-4" x="420" y="-420" width="1080" height="1920" transform="translate(1500 -420) rotate(90)"/></g><g class="cls-3"><path class="cls-5" d="M918,1073.6c20.33-38.62,30.25-83.79,13.3-125.56-8.75-21.56-24.24-43.82-43.51-57.2-15.83-11-34.89-16.17-53.42-20.53-32.74-7.71-74-12.56-93.88-43.49-21.61-33.64-5.32-78.67,11.72-110.52,21.29-39.79,50.75-74.51,78.73-109.65,29.3-36.79,55-76.93,68-122.6,7.08-24.91,9.9-51.3,5.28-76.94-4.84-26.86-17.8-51.6-36-71.84-30.87-34.35-77.85-48.71-122.63-51.95-45.78-3.31-92.05,3.43-136.4,14.53C544.49,314,482.88,345.3,415.09,347.26c-27.86.8-59.14-4.4-77.3-27.73-17.72-22.77-20.94-59-10.79-85.57,10.27-26.93,34-45.56,58.28-59.43,29.22-16.68,61.09-28.22,92.28-40.57,28.95-11.45,59.65-23.05,84.21-42.71a101.57,101.57,0,0,0,27.18-34c6.61-13,10.77-28.49,5.36-42.68A43.58,43.58,0,0,0,585.05,0H0V1080H914.49Q916.27,1076.82,918,1073.6Z"/></g><g class="cls-3"><path class="cls-6" d="M1315,7c-7.12,43.66-6.64,122.59,35,152.78,27,19.57,57.53,16.08,86.59,4,69-28.54,108.74-64.57,186.64-75.1,131.25-17.74,138.17,107.91,39.75,168.94-34.29,21.27-67.94,42.87-103,62.87-154.06,88-379.52,270.92-278.09,462.76,39.14,74,122.07,118,210,100.15,77.52-15.74,295-166.9,325.59-15,7.65,38-9.86,78.64-26.8,112.41-19,37.88-43.1,73.35-68.49,107.77H1920V-3.92c0,.2-557.27-.17-602.89-.22Q1315.88,1.41,1315,7Z"/></g><g class="cls-7"><g class="cls-8"><line class="cls-9" x1="939.92" y1="180.2" x2="1706.15" y2="-586.03"/><line class="cls-9" x1="952.75" y1="195.57" x2="1718.97" y2="-570.65"/><line class="cls-9" x1="965.58" y1="210.95" x2="1731.8" y2="-555.27"/><line class="cls-9" x1="978.4" y1="226.32" x2="1744.63" y2="-539.9"/><line class="cls-9" x1="991.23" y1="241.7" x2="1757.45" y2="-524.52"/><line class="cls-9" x1="1004.06" y1="257.08" x2="1770.28" y2="-509.15"/><line class="cls-9" x1="1016.88" y1="272.45" x2="1783.11" y2="-493.77"/><line class="cls-9" x1="1029.71" y1="287.83" x2="1795.93" y2="-478.39"/><line class="cls-9" x1="1042.54" y1="303.2" x2="1808.76" y2="-463.02"/><line class="cls-9" x1="1055.36" y1="318.58" x2="1821.59" y2="-447.64"/><line class="cls-9" x1="1068.19" y1="333.96" x2="1834.41" y2="-432.27"/><line class="cls-9" x1="1081.02" y1="349.33" x2="1847.24" y2="-416.89"/><line class="cls-9" x1="1093.84" y1="364.71" x2="1860.06" y2="-401.51"/><line class="cls-9" x1="1106.67" y1="380.08" x2="1872.89" y2="-386.14"/><line class="cls-9" x1="1119.5" y1="395.46" x2="1885.72" y2="-370.76"/><line class="cls-9" x1="1132.32" y1="410.84" x2="1898.54" y2="-355.39"/><line class="cls-9" x1="1145.15" y1="426.21" x2="1911.37" y2="-340.01"/><line class="cls-9" x1="1157.98" y1="441.59" x2="1924.2" y2="-324.63"/><line class="cls-9" x1="1170.8" y1="456.96" x2="1937.02" y2="-309.26"/><line class="cls-9" x1="1183.63" y1="472.34" x2="1949.85" y2="-293.88"/><line class="cls-9" x1="1196.46" y1="487.72" x2="1962.68" y2="-278.51"/><line class="cls-9" x1="1209.28" y1="503.09" x2="1975.5" y2="-263.13"/><line class="cls-9" x1="1222.11" y1="518.47" x2="1988.33" y2="-247.75"/><line class="cls-9" x1="1234.94" y1="533.84" x2="2001.16" y2="-232.38"/><line class="cls-9" x1="1247.76" y1="549.22" x2="2013.98" y2="-217"/><line class="cls-9" x1="1260.59" y1="564.6" x2="2026.81" y2="-201.63"/><line class="cls-9" x1="1273.42" y1="579.97" x2="2039.64" y2="-186.25"/><line class="cls-9" x1="1286.24" y1="595.35" x2="2052.46" y2="-170.87"/><line class="cls-9" x1="1299.07" y1="610.72" x2="2065.29" y2="-155.5"/><line class="cls-9" x1="1311.89" y1="626.1" x2="2078.12" y2="-140.12"/><line class="cls-9" x1="1324.72" y1="641.47" x2="2090.94" y2="-124.75"/><line class="cls-9" x1="1337.55" y1="656.85" x2="2103.77" y2="-109.37"/><line class="cls-9" x1="1350.37" y1="672.23" x2="2116.6" y2="-93.99"/><line class="cls-9" x1="1363.2" y1="687.6" x2="2129.42" y2="-78.62"/><line class="cls-9" x1="1376.03" y1="702.98" x2="2142.25" y2="-63.24"/><line class="cls-9" x1="1388.85" y1="718.35" x2="2155.08" y2="-47.87"/><line class="cls-9" x1="1401.68" y1="733.73" x2="2167.9" y2="-32.49"/><line class="cls-9" x1="1414.51" y1="749.11" x2="2180.73" y2="-17.12"/><line class="cls-9" x1="1427.33" y1="764.48" x2="2193.56" y2="-1.74"/><line class="cls-9" x1="1440.16" y1="779.86" x2="2206.38" y2="13.64"/><line class="cls-9" x1="1452.99" y1="795.23" x2="2219.21" y2="29.01"/><line class="cls-9" x1="1465.81" y1="810.61" x2="2232.04" y2="44.39"/><line class="cls-9" x1="1478.64" y1="825.99" x2="2244.86" y2="59.76"/><line class="cls-9" x1="1491.47" y1="841.36" x2="2257.69" y2="75.14"/><line class="cls-9" x1="1504.29" y1="856.74" x2="2270.52" y2="90.52"/><line class="cls-9" x1="1517.12" y1="872.11" x2="2283.34" y2="105.89"/><line class="cls-9" x1="1529.95" y1="887.49" x2="2296.17" y2="121.27"/><line class="cls-9" x1="1542.77" y1="902.87" x2="2308.99" y2="136.64"/><line class="cls-9" x1="1555.6" y1="918.24" x2="2321.82" y2="152.02"/><line class="cls-9" x1="1568.43" y1="933.62" x2="2334.65" y2="167.4"/><line class="cls-9" x1="1581.25" y1="948.99" x2="2347.47" y2="182.77"/><line class="cls-9" x1="1594.08" y1="964.37" x2="2360.3" y2="198.15"/><line class="cls-9" x1="1606.91" y1="979.75" x2="2373.13" y2="213.52"/><line class="cls-9" x1="1619.73" y1="995.12" x2="2385.95" y2="228.9"/><line class="cls-9" x1="1632.56" y1="1010.5" x2="2398.78" y2="244.28"/><line class="cls-9" x1="1645.39" y1="1025.87" x2="2411.61" y2="259.65"/><line class="cls-9" x1="1658.21" y1="1041.25" x2="2424.43" y2="275.03"/><line class="cls-9" x1="1671.04" y1="1056.63" x2="2437.26" y2="290.4"/><line class="cls-9" x1="1683.87" y1="1072" x2="2450.09" y2="305.78"/><line class="cls-9" x1="1696.69" y1="1087.38" x2="2462.91" y2="321.16"/><line class="cls-9" x1="1709.52" y1="1102.75" x2="2475.74" y2="336.53"/><line class="cls-9" x1="1722.35" y1="1118.13" x2="2488.57" y2="351.91"/></g></g><g class="cls-3"><path class="cls-10" d="M1812.45-3.88c19.6,26.75,25.09,63.63,24.84,95-.43,53.25-25.06,97.38-62.41,136.42-34.18,35.7-74.09,66.87-104.86,105.4-26.87,33.65-46.57,73.17-55.51,114.36-8.75,40.33-6.43,84.56,17.94,120,29.32,42.66,81.71,57.44,130.44,72.76,47.93,15.08,86.7,36.45,113.37,77.91,23,35.72,35.14,77.2,37.39,118.68A245.61,245.61,0,0,1,1907,907.8h13V-3.92S1875.26-3.86,1812.45-3.88Z"/></g><path class="cls-11" d="M487,1079.69c5.71-35,5.32-98.28-28-122.48C437.3,941.52,412.8,944.32,389.5,954c-55.3,22.88-87.18,51.76-149.62,60.21C134.65,1028.39,129.1,927.65,208,878.72c27.5-17.05,54.47-34.37,82.54-50.4,123.51-70.54,304.27-217.2,223-371-30.07-56.87-92.39-91.63-159.59-81.82a108.54,108.54,0,0,0-15.6,3.61C5.71,478.78,1.93,212.55,1.93,212.55v875.88c0-.15,446.76.14,483.34.18C485.91,1085.65,486.47,1082.67,487,1079.69Z"/><g class="cls-12"><g class="cls-13"><line class="cls-9" x1="-481.87" y1="477.05" x2="284.35" y2="-289.17"/><line class="cls-9" x1="-469.04" y1="492.42" x2="297.18" y2="-273.8"/><line class="cls-9" x1="-456.22" y1="507.8" x2="310" y2="-258.42"/><line class="cls-9" x1="-443.39" y1="523.17" x2="322.83" y2="-243.05"/><line class="cls-9" x1="-430.57" y1="538.55" x2="335.66" y2="-227.67"/><line class="cls-9" x1="-417.74" y1="553.93" x2="348.48" y2="-212.29"/><line class="cls-9" x1="-404.91" y1="569.3" x2="361.31" y2="-196.92"/><line class="cls-9" x1="-392.09" y1="584.68" x2="374.14" y2="-181.54"/><line class="cls-9" x1="-379.26" y1="600.05" x2="386.96" y2="-166.17"/><line class="cls-9" x1="-366.43" y1="615.43" x2="399.79" y2="-150.79"/><line class="cls-9" x1="-353.61" y1="630.81" x2="412.62" y2="-135.42"/><line class="cls-9" x1="-340.78" y1="646.18" x2="425.44" y2="-120.04"/><line class="cls-9" x1="-327.95" y1="661.56" x2="438.27" y2="-104.66"/><line class="cls-9" x1="-315.13" y1="676.93" x2="451.1" y2="-89.29"/><line class="cls-9" x1="-302.3" y1="692.31" x2="463.92" y2="-73.91"/><line class="cls-9" x1="-289.47" y1="707.69" x2="476.75" y2="-58.54"/><line class="cls-9" x1="-276.65" y1="723.06" x2="489.58" y2="-43.16"/><line class="cls-9" x1="-263.82" y1="738.44" x2="502.4" y2="-27.78"/><line class="cls-9" x1="-250.99" y1="753.81" x2="515.23" y2="-12.41"/><line class="cls-9" x1="-238.17" y1="769.19" x2="528.06" y2="2.97"/><line class="cls-9" x1="-225.34" y1="784.57" x2="540.88" y2="18.34"/><line class="cls-9" x1="-212.51" y1="799.94" x2="553.71" y2="33.72"/><line class="cls-9" x1="-199.69" y1="815.32" x2="566.53" y2="49.1"/><line class="cls-9" x1="-186.86" y1="830.69" x2="579.36" y2="64.47"/><line class="cls-9" x1="-174.03" y1="846.07" x2="592.19" y2="79.85"/><line class="cls-9" x1="-161.21" y1="861.45" x2="605.01" y2="95.22"/><line class="cls-9" x1="-148.38" y1="876.82" x2="617.84" y2="110.6"/><line class="cls-9" x1="-135.55" y1="892.2" x2="630.67" y2="125.98"/><line class="cls-9" x1="-122.73" y1="907.57" x2="643.49" y2="141.35"/><line class="cls-9" x1="-109.9" y1="922.95" x2="656.32" y2="156.73"/><line class="cls-9" x1="-97.07" y1="938.33" x2="669.15" y2="172.1"/><line class="cls-9" x1="-84.25" y1="953.7" x2="681.97" y2="187.48"/><line class="cls-9" x1="-71.42" y1="969.08" x2="694.8" y2="202.86"/><line class="cls-9" x1="-58.59" y1="984.45" x2="707.63" y2="218.23"/><line class="cls-9" x1="-45.77" y1="999.83" x2="720.45" y2="233.61"/><line class="cls-9" x1="-32.94" y1="1015.21" x2="733.28" y2="248.98"/><line class="cls-9" x1="-20.11" y1="1030.58" x2="746.11" y2="264.36"/><line class="cls-9" x1="-7.29" y1="1045.96" x2="758.93" y2="279.74"/><line class="cls-9" x1="5.54" y1="1061.33" x2="771.76" y2="295.11"/><line class="cls-9" x1="18.36" y1="1076.71" x2="784.59" y2="310.49"/><line class="cls-9" x1="31.19" y1="1092.09" x2="797.41" y2="325.86"/><line class="cls-9" x1="44.02" y1="1107.46" x2="810.24" y2="341.24"/><line class="cls-9" x1="56.84" y1="1122.84" x2="823.07" y2="356.62"/><line class="cls-9" x1="69.67" y1="1138.21" x2="835.89" y2="371.99"/><line class="cls-9" x1="82.5" y1="1153.59" x2="848.72" y2="387.37"/><line class="cls-9" x1="95.32" y1="1168.96" x2="861.55" y2="402.74"/><line class="cls-9" x1="108.15" y1="1184.34" x2="874.37" y2="418.12"/><line class="cls-9" x1="120.98" y1="1199.72" x2="887.2" y2="433.5"/><line class="cls-9" x1="133.8" y1="1215.09" x2="900.03" y2="448.87"/><line class="cls-9" x1="146.63" y1="1230.47" x2="912.85" y2="464.25"/><line class="cls-9" x1="159.46" y1="1245.84" x2="925.68" y2="479.62"/><line class="cls-9" x1="172.28" y1="1261.22" x2="938.51" y2="495"/><line class="cls-9" x1="185.11" y1="1276.6" x2="951.33" y2="510.37"/><line class="cls-9" x1="197.94" y1="1291.97" x2="964.16" y2="525.75"/><line class="cls-9" x1="210.76" y1="1307.35" x2="976.99" y2="541.13"/><line class="cls-9" x1="223.59" y1="1322.72" x2="989.81" y2="556.5"/><line class="cls-9" x1="236.42" y1="1338.1" x2="1002.64" y2="571.88"/><line class="cls-9" x1="249.24" y1="1353.48" x2="1015.46" y2="587.25"/><line class="cls-9" x1="262.07" y1="1368.85" x2="1028.29" y2="602.63"/><line class="cls-9" x1="274.9" y1="1384.23" x2="1041.12" y2="618.01"/><line class="cls-9" x1="287.72" y1="1399.6" x2="1053.94" y2="633.38"/><line class="cls-9" x1="300.55" y1="1414.98" x2="1066.77" y2="648.76"/></g></g><g class="cls-3"><path class="cls-14" d="M88.13,1088.4c-15.71-21.44-20.12-51-19.92-76.12.34-42.69,20.09-78.08,50-109.37,27.4-28.63,59.4-53.62,84.06-84.5,21.55-27,37.34-58.67,44.5-91.69,7-32.33,5.16-67.79-14.37-96.21-23.51-34.2-65.51-46-104.58-58.34C89.43,560.09,58.35,543,37,509.71,18.55,481.08,8.8,447.83,7,414.57a196.74,196.74,0,0,1,5.32-57.07H1.93v730.93S37.77,1088.39,88.13,1088.4Z"/></g><g class="cls-12"><rect class="cls-15" x="869.26" y="449.26" width="181.48" height="181.48" transform="translate(-100.66 836.98) rotate(-45)"/><rect class="cls-15" x="908.71" y="488.71" width="102.58" height="102.58" transform="translate(-100.66 836.98) rotate(-45)"/></g><g class="cls-12"><rect class="cls-16" x="351.46" y="77.27" width="18.36" height="18.36" transform="translate(44.5 280.33) rotate(-45)"/><polyline class="cls-9" points="384.21 86.45 360.64 110.02 337.07 86.45"/></g><g class="cls-12"><rect class="cls-16" x="1185.11" y="746.82" width="18.36" height="18.36" transform="translate(-184.77 1065.92) rotate(-45)"/><polyline class="cls-9" points="1217.86 756 1194.29 779.57 1170.72 756"/></g><g class="cls-12"><rect class="cls-16" x="1796.98" y="306.18" width="18.36" height="18.36" transform="translate(306.02 1369.51) rotate(-45)"/><polyline class="cls-9" points="1829.73 315.36 1806.16 338.93 1782.59 315.36"/></g><g class="cls-12"><rect class="cls-16" x="1842.34" y="1011.51" width="18.36" height="18.36" transform="translate(-179.45 1608.16) rotate(-45)"/><polyline class="cls-9" points="1875.09 1020.69 1851.52 1044.26 1827.95 1020.69"/></g><g class="cls-12"><rect class="cls-16" x="72.9" y="710.1" width="18.36" height="18.36" transform="translate(-484.56 268.71) rotate(-45)"/><polyline class="cls-9" points="105.65 719.28 82.08 742.85 58.51 719.28"/></g><g class="cls-12"><rect class="cls-16" x="705.78" y="961.83" width="18.36" height="18.36" transform="translate(-477.2 789.95) rotate(-45)"/><polyline class="cls-9" points="738.53 971.01 714.96 994.58 691.39 971.01"/></g><g class="cls-12"><polyline class="cls-9" points="198.34 133.92 174.77 157.49 151.2 133.92"/></g><g class="cls-12"><polyline class="cls-9" points="671.57 725.95 648 749.52 624.43 725.95"/></g><g class="cls-12"><polyline class="cls-9" points="664.67 224.33 688.24 200.76 711.81 224.33"/></g><g class="cls-12"><polyline class="cls-9" points="1823.63 73.25 1847.2 49.68 1870.77 73.25"/></g><g class="cls-12"><polyline class="cls-9" points="1246.14 79.93 1222.57 103.5 1199 79.93"/></g><g class="cls-12"><polyline class="cls-9" points="1687.17 866.35 1663.6 889.92 1640.03 866.35"/></g><g class="cls-12"><polyline class="cls-9" points="1040.93 977.49 1017.36 1001.06 993.79 977.49"/></g><g class="cls-17"><circle class="cls-16" cx="309.96" cy="856.44" r="3.24"/><circle class="cls-16" cx="309.96" cy="881.28" r="3.24"/><circle class="cls-16" cx="309.96" cy="906.12" r="3.24"/><circle class="cls-16" cx="290.52" cy="856.44" r="3.24"/><circle class="cls-16" cx="290.52" cy="881.28" r="3.24"/><circle class="cls-16" cx="290.52" cy="906.12" r="3.24"/><circle class="cls-16" cx="349.92" cy="856.44" r="3.24"/><circle class="cls-16" cx="349.92" cy="881.28" r="3.24"/><circle class="cls-16" cx="349.92" cy="906.12" r="3.24"/><circle class="cls-16" cx="330.48" cy="856.44" r="3.24"/><circle class="cls-16" cx="330.48" cy="881.28" r="3.24"/><circle class="cls-16" cx="330.48" cy="906.12" r="3.24"/><circle class="cls-16" cx="389.88" cy="856.44" r="3.24"/><circle class="cls-16" cx="389.88" cy="881.28" r="3.24"/><circle class="cls-16" cx="389.88" cy="906.12" r="3.24"/><circle class="cls-16" cx="370.44" cy="856.44" r="3.24"/><circle class="cls-16" cx="370.44" cy="881.28" r="3.24"/><circle class="cls-16" cx="370.44" cy="906.12" r="3.24"/><circle class="cls-16" cx="429.84" cy="856.44" r="3.24"/><circle class="cls-16" cx="429.84" cy="881.28" r="3.24"/><circle class="cls-16" cx="429.84" cy="906.12" r="3.24"/><circle class="cls-16" cx="410.4" cy="856.44" r="3.24"/><circle class="cls-16" cx="410.4" cy="881.28" r="3.24"/><circle class="cls-16" cx="410.4" cy="906.12" r="3.24"/><circle class="cls-16" cx="469.8" cy="856.44" r="3.24"/><circle class="cls-16" cx="469.8" cy="881.28" r="3.24"/><circle class="cls-16" cx="469.8" cy="906.12" r="3.24"/><circle class="cls-16" cx="450.36" cy="856.44" r="3.24"/><circle class="cls-16" cx="450.36" cy="881.28" r="3.24"/><circle class="cls-16" cx="450.36" cy="906.12" r="3.24"/><circle class="cls-16" cx="509.76" cy="856.44" r="3.24"/><circle class="cls-16" cx="509.76" cy="881.28" r="3.24"/><circle class="cls-16" cx="509.76" cy="906.12" r="3.24"/><circle class="cls-16" cx="490.32" cy="856.44" r="3.24"/><circle class="cls-16" cx="490.32" cy="881.28" r="3.24"/><circle class="cls-16" cx="490.32" cy="906.12" r="3.24"/><circle class="cls-16" cx="549.72" cy="856.44" r="3.24"/><circle class="cls-16" cx="549.72" cy="881.28" r="3.24"/><circle class="cls-16" cx="549.72" cy="906.12" r="3.24"/><circle class="cls-16" cx="530.28" cy="856.44" r="3.24"/><circle class="cls-16" cx="530.28" cy="881.28" r="3.24"/><circle class="cls-16" cx="530.28" cy="906.12" r="3.24"/></g><g class="cls-18"><path class="cls-16" d="M1123.26,338a3.24,3.24,0,1,1-4.58,0A3.25,3.25,0,0,1,1123.26,338Z"/><circle class="cls-16" cx="1156.1" cy="375.45" r="3.24"/><circle class="cls-16" cx="1107.22" cy="354.06" r="3.24"/><path class="cls-16" d="M1127.08,369.34a3.24,3.24,0,1,1-4.59,0A3.25,3.25,0,0,1,1127.08,369.34Z"/><circle class="cls-16" cx="1142.35" cy="389.19" r="3.24"/><path class="cls-16" d="M1137.77,323.52a3.24,3.24,0,1,1-4.58,0A3.25,3.25,0,0,1,1137.77,323.52Z"/><circle class="cls-16" cx="1153.04" cy="343.37" r="3.24"/><circle class="cls-16" cx="1170.61" cy="360.94" r="3.24"/></g><g class="cls-18"><path class="cls-16" d="M456.06,102.5a3.24,3.24,0,1,1-4.58,0A3.23,3.23,0,0,1,456.06,102.5Z"/><path class="cls-16" d="M491.19,137.63a3.24,3.24,0,1,1-4.58,0A3.23,3.23,0,0,1,491.19,137.63Z"/><path class="cls-16" d="M442.32,116.24a3.24,3.24,0,1,1-4.58,0A3.26,3.26,0,0,1,442.32,116.24Z"/><path class="cls-16" d="M459.88,133.81a3.24,3.24,0,1,1-4.58,0A3.25,3.25,0,0,1,459.88,133.81Z"/><path class="cls-16" d="M477.45,151.37a3.24,3.24,0,1,1-4.59,0A3.25,3.25,0,0,1,477.45,151.37Z"/><circle class="cls-16" cx="468.28" cy="90.28" r="3.24"/><circle class="cls-16" cx="485.85" cy="107.84" r="3.24"/><circle class="cls-16" cx="503.41" cy="125.41" r="3.24"/></g><g class="cls-18"><circle class="cls-16" cx="151.57" cy="39.84" r="3.24"/><path class="cls-16" d="M189,72.67a3.24,3.24,0,1,1-4.58,0A3.26,3.26,0,0,1,189,72.67Z"/><path class="cls-16" d="M140.12,51.29a3.24,3.24,0,1,1-4.59,0A3.25,3.25,0,0,1,140.12,51.29Z"/><circle class="cls-16" cx="155.39" cy="71.15" r="3.24"/><circle class="cls-16" cx="172.95" cy="88.71" r="3.24"/><circle class="cls-16" cx="166.08" cy="25.33" r="3.24"/><circle class="cls-16" cx="183.64" cy="42.89" r="3.24"/><path class="cls-16" d="M203.5,58.16a3.24,3.24,0,1,1-4.58,0A3.26,3.26,0,0,1,203.5,58.16Z"/></g><g class="cls-18"><path class="cls-16" d="M1694.14,389.78a3.24,3.24,0,1,1-4.58,0A3.23,3.23,0,0,1,1694.14,389.78Z"/><path class="cls-16" d="M1729.27,424.91a3.24,3.24,0,1,1-4.58,0A3.23,3.23,0,0,1,1729.27,424.91Z"/><path class="cls-16" d="M1680.4,403.52a3.25,3.25,0,1,1-4.59,0A3.26,3.26,0,0,1,1680.4,403.52Z"/><path class="cls-16" d="M1698,421.09a3.24,3.24,0,1,1-4.58,0A3.25,3.25,0,0,1,1698,421.09Z"/><path class="cls-16" d="M1715.53,438.65a3.24,3.24,0,1,1-4.59,0A3.25,3.25,0,0,1,1715.53,438.65Z"/><circle class="cls-16" cx="1706.36" cy="377.56" r="3.24"/><circle class="cls-16" cx="1723.93" cy="395.12" r="3.24"/><circle class="cls-16" cx="1741.49" cy="412.69" r="3.24"/></g><g class="cls-18"><path class="cls-16" d="M1207.74,970.56a3.24,3.24,0,1,1-4.58,0A3.23,3.23,0,0,1,1207.74,970.56Z"/><circle class="cls-16" cx="1240.58" cy="1007.98" r="3.24"/><circle class="cls-16" cx="1191.71" cy="986.59" r="3.24"/><path class="cls-16" d="M1211.56,1001.87a3.24,3.24,0,1,1-4.58,0A3.25,3.25,0,0,1,1211.56,1001.87Z"/><path class="cls-16" d="M1229.13,1019.43a3.24,3.24,0,1,1-4.59,0A3.25,3.25,0,0,1,1229.13,1019.43Z"/><path class="cls-16" d="M1222.25,956.05a3.24,3.24,0,1,1-4.58,0A3.23,3.23,0,0,1,1222.25,956.05Z"/><path class="cls-16" d="M1239.82,973.61a3.24,3.24,0,1,1-4.58,0A3.25,3.25,0,0,1,1239.82,973.61Z"/><circle class="cls-16" cx="1255.09" cy="993.47" r="3.24"/></g><g class="cls-18"><path class="cls-16" d="M39.21,849.88a3.24,3.24,0,1,1-4.59,0A3.25,3.25,0,0,1,39.21,849.88Z"/><path class="cls-16" d="M74.33,885a3.24,3.24,0,1,1-4.58,0A3.23,3.23,0,0,1,74.33,885Z"/><path class="cls-16" d="M25.46,863.63a3.24,3.24,0,1,1-4.58,0A3.25,3.25,0,0,1,25.46,863.63Z"/><path class="cls-16" d="M43,881.19a3.24,3.24,0,1,1-4.58,0A3.23,3.23,0,0,1,43,881.19Z"/><path class="cls-16" d="M60.59,898.76a3.24,3.24,0,1,1-4.58,0A3.25,3.25,0,0,1,60.59,898.76Z"/><path class="cls-16" d="M53.72,835.37a3.24,3.24,0,1,1-4.59,0A3.25,3.25,0,0,1,53.72,835.37Z"/><circle class="cls-16" cx="68.99" cy="855.23" r="3.24"/><circle class="cls-16" cx="86.55" cy="872.79" r="3.24"/></g><g class="cls-18"><circle class="cls-16" cx="179.65" cy="666.5" r="3.24"/><path class="cls-16" d="M217.07,699.34a3.24,3.24,0,1,1-4.58,0A3.25,3.25,0,0,1,217.07,699.34Z"/><circle class="cls-16" cx="165.9" cy="680.24" r="3.24"/><circle class="cls-16" cx="183.47" cy="697.81" r="3.24"/><path class="cls-16" d="M203.32,713.08a3.24,3.24,0,1,1-4.58,0A3.23,3.23,0,0,1,203.32,713.08Z"/><path class="cls-16" d="M196.45,649.7a3.24,3.24,0,1,1-4.58,0A3.25,3.25,0,0,1,196.45,649.7Z"/><path class="cls-16" d="M214,667.26a3.24,3.24,0,1,1-4.59,0A3.25,3.25,0,0,1,214,667.26Z"/><path class="cls-16" d="M231.58,684.83a3.24,3.24,0,1,1-4.58,0A3.25,3.25,0,0,1,231.58,684.83Z"/></g><g class="cls-18"><path class="cls-16" d="M840.72,754.38a3.24,3.24,0,1,1-4.58,0A3.25,3.25,0,0,1,840.72,754.38Z"/><path class="cls-16" d="M875.85,789.51a3.24,3.24,0,1,1-4.58,0A3.25,3.25,0,0,1,875.85,789.51Z"/><path class="cls-16" d="M827,768.13a3.24,3.24,0,1,1-4.58,0A3.23,3.23,0,0,1,827,768.13Z"/><path class="cls-16" d="M844.54,785.69a3.24,3.24,0,1,1-4.58,0A3.25,3.25,0,0,1,844.54,785.69Z"/><circle class="cls-16" cx="859.81" cy="805.55" r="3.24"/><path class="cls-16" d="M855.23,739.87a3.24,3.24,0,1,1-4.58,0A3.25,3.25,0,0,1,855.23,739.87Z"/><path class="cls-16" d="M872.79,757.43a3.24,3.24,0,1,1-4.58,0A3.24,3.24,0,0,1,872.79,757.43Z"/><circle class="cls-16" cx="888.07" cy="777.29" r="3.24"/></g><g class="cls-17"><circle class="cls-16" cx="935.16" cy="243" r="3.24"/><circle class="cls-16" cx="960" cy="243" r="3.24"/><circle class="cls-16" cx="984.84" cy="243" r="3.24"/><circle class="cls-16" cx="935.16" cy="262.44" r="3.24"/><circle class="cls-16" cx="960" cy="262.44" r="3.24"/><circle class="cls-16" cx="984.84" cy="262.44" r="3.24"/><circle class="cls-16" cx="935.16" cy="203.04" r="3.24"/><circle class="cls-16" cx="960" cy="203.04" r="3.24"/><circle class="cls-16" cx="984.84" cy="203.04" r="3.24"/><circle class="cls-16" cx="935.16" cy="222.48" r="3.24"/><circle class="cls-16" cx="960" cy="222.48" r="3.24"/><circle class="cls-16" cx="984.84" cy="222.48" r="3.24"/><circle class="cls-16" cx="935.16" cy="163.08" r="3.24"/><circle class="cls-16" cx="960" cy="163.08" r="3.24"/><circle class="cls-16" cx="984.84" cy="163.08" r="3.24"/><circle class="cls-16" cx="935.16" cy="182.52" r="3.24"/><circle class="cls-16" cx="960" cy="182.52" r="3.24"/><circle class="cls-16" cx="984.84" cy="182.52" r="3.24"/><circle class="cls-16" cx="935.16" cy="123.12" r="3.24"/><circle class="cls-16" cx="960" cy="123.12" r="3.24"/><circle class="cls-16" cx="984.84" cy="123.12" r="3.24"/><circle class="cls-16" cx="935.16" cy="142.56" r="3.24"/><circle class="cls-16" cx="960" cy="142.56" r="3.24"/><circle class="cls-16" cx="984.84" cy="142.56" r="3.24"/><circle class="cls-16" cx="935.16" cy="83.16" r="3.24"/><circle class="cls-16" cx="960" cy="83.16" r="3.24"/><circle class="cls-16" cx="984.84" cy="83.16" r="3.24"/><circle class="cls-16" cx="935.16" cy="102.6" r="3.24"/><circle class="cls-16" cx="960" cy="102.6" r="3.24"/><circle class="cls-16" cx="984.84" cy="102.6" r="3.24"/><circle class="cls-16" cx="935.16" cy="43.2" r="3.24"/><circle class="cls-16" cx="960" cy="43.2" r="3.24"/><circle class="cls-16" cx="984.84" cy="43.2" r="3.24"/><circle class="cls-16" cx="935.16" cy="62.64" r="3.24"/><circle class="cls-16" cx="960" cy="62.64" r="3.24"/><circle class="cls-16" cx="984.84" cy="62.64" r="3.24"/><circle class="cls-16" cx="935.16" cy="3.24" r="3.24"/><circle class="cls-16" cx="960" cy="3.24" r="3.24"/><circle class="cls-16" cx="984.84" cy="3.24" r="3.24"/><circle class="cls-16" cx="935.16" cy="22.68" r="3.24"/><circle class="cls-16" cx="960" cy="22.68" r="3.24"/><circle class="cls-16" cx="984.84" cy="22.68" r="3.24"/></g><g class="cls-17"><circle class="cls-16" cx="1596.64" cy="487.08" r="3.24"/><circle class="cls-16" cx="1596.64" cy="511.92" r="3.24"/><circle class="cls-16" cx="1596.64" cy="536.76" r="3.24"/><circle class="cls-16" cx="1577.2" cy="487.08" r="3.24"/><circle class="cls-16" cx="1577.2" cy="511.92" r="3.24"/><circle class="cls-16" cx="1577.2" cy="536.76" r="3.24"/><circle class="cls-16" cx="1636.6" cy="487.08" r="3.24"/><circle class="cls-16" cx="1636.6" cy="511.92" r="3.24"/><circle class="cls-16" cx="1636.6" cy="536.76" r="3.24"/><circle class="cls-16" cx="1617.16" cy="487.08" r="3.24"/><circle class="cls-16" cx="1617.16" cy="511.92" r="3.24"/><circle class="cls-16" cx="1617.16" cy="536.76" r="3.24"/><circle class="cls-16" cx="1676.56" cy="487.08" r="3.24"/><circle class="cls-16" cx="1676.56" cy="511.92" r="3.24"/><circle class="cls-16" cx="1676.56" cy="536.76" r="3.24"/><circle class="cls-16" cx="1657.12" cy="487.08" r="3.24"/><circle class="cls-16" cx="1657.12" cy="511.92" r="3.24"/><circle class="cls-16" cx="1657.12" cy="536.76" r="3.24"/><circle class="cls-16" cx="1716.52" cy="487.08" r="3.24"/><circle class="cls-16" cx="1716.52" cy="511.92" r="3.24"/><circle class="cls-16" cx="1716.52" cy="536.76" r="3.24"/><circle class="cls-16" cx="1697.08" cy="487.08" r="3.24"/><circle class="cls-16" cx="1697.08" cy="511.92" r="3.24"/><circle class="cls-16" cx="1697.08" cy="536.76" r="3.24"/><circle class="cls-16" cx="1756.48" cy="487.08" r="3.24"/><circle class="cls-16" cx="1756.48" cy="511.92" r="3.24"/><circle class="cls-16" cx="1756.48" cy="536.76" r="3.24"/><circle class="cls-16" cx="1737.04" cy="487.08" r="3.24"/><circle class="cls-16" cx="1737.04" cy="511.92" r="3.24"/><circle class="cls-16" cx="1737.04" cy="536.76" r="3.24"/><circle class="cls-16" cx="1796.44" cy="487.08" r="3.24"/><circle class="cls-16" cx="1796.44" cy="511.92" r="3.24"/><circle class="cls-16" cx="1796.44" cy="536.76" r="3.24"/><circle class="cls-16" cx="1777" cy="487.08" r="3.24"/><circle class="cls-16" cx="1777" cy="511.92" r="3.24"/><circle class="cls-16" cx="1777" cy="536.76" r="3.24"/><circle class="cls-16" cx="1836.4" cy="487.08" r="3.24"/><circle class="cls-16" cx="1836.4" cy="511.92" r="3.24"/><circle class="cls-16" cx="1836.4" cy="536.76" r="3.24"/><circle class="cls-16" cx="1816.96" cy="487.08" r="3.24"/><circle class="cls-16" cx="1816.96" cy="511.92" r="3.24"/><circle class="cls-16" cx="1816.96" cy="536.76" r="3.24"/></g></g></g></svg>