<?xml version="1.0" encoding="utf-8"?>
<!-- Generator: Adobe Illustrator 24.0.2, SVG Export Plug-In . SVG Version: 6.00 Build 0)  -->
<svg version="1.1" xmlns="http://www.w3.org/2000/svg" xmlns:xlink="http://www.w3.org/1999/xlink" x="0px" y="0px"
	 viewBox="0 0 573.5 141" style="enable-background:new 0 0 573.5 141;" xml:space="preserve">
<style type="text/css">
	.st0{fill:url(#SVGID_1_);}
	.st1{fill:#1A2160;}
	.st2{fill:#02063D;}
	.st3{display:none;}
	.st4{display:inline;}
	.st5{fill:#01052B;}
	.st6{display:inline;fill:#01052B;}
	.st7{fill:#FFFFFF;}
	.st8{opacity:0.5;fill:#FFFFFF;}
	.st9{fill-rule:evenodd;clip-rule:evenodd;fill:#02063D;}
	.st10{font-family:'Anton-Regular';}
	.st11{font-size:37px;}
	.st12{fill:none;stroke:#FFFFFF;stroke-miterlimit:10;}
	.st13{fill:none;stroke:#FFFFFF;stroke-width:2;stroke-miterlimit:10;}
</style>
<g id="Layer_1">
</g>
<g id="Layer_2">
	<circle class="st7" cx="71.5" cy="69.5" r="69"/>
	<g>
		<g>
			<g>
				<path class="st2" d="M50.9,72.3c-0.7-1.4-1.6-2.6-2.6-3.6c-1.1-1-2.3-1.8-3.6-2.4c-1.4-0.6-2.7-1.2-4-1.7L37,63.4
					c-1.4-0.6-2.5-1.2-3.4-1.9c-0.9-0.7-1.3-1.7-1.3-3c0-1.2,0.4-2.1,1.3-2.8c3.3-2.6,8.9-1.3,9.6-1.1c0.7,0.2,1.3,0.5,1.9,0.7
					c0.5,0.3,1,0.5,1.4,0.7c0.4,0.2,0.8,0.3,1.3,0.3c0.6,0,1-0.1,1.4-0.4c0.4-0.3,0.7-0.7,1-1.1c0.3-0.4,0.4-0.9,0.6-1.3
					c0.1-0.5,0.2-0.9,0.2-1.2c0-0.9-0.4-1.6-1-2.2c-0.7-0.6-1.6-1.1-2.6-1.4c-1-0.4-2.2-0.6-3.3-0.8c-1.2-0.2-2.3-0.2-3.2-0.2V46
					c0-0.4-0.2-0.8-0.6-1.1c-0.4-0.3-0.9-0.5-1.4-0.5c-0.6,0-1,0.1-1.4,0.4c-0.4,0.3-0.6,0.6-0.6,1v1.7c-1.5,0.2-3,0.6-4.4,1.1
					c-1.4,0.5-2.6,1.2-3.7,2.2c-1.1,0.9-1.9,2.1-2.6,3.5c-0.6,1.4-1,3-1,4.9c0,1.9,0.4,3.5,1,4.8c0.7,1.3,1.6,2.4,2.7,3.3
					c1.1,0.9,2.4,1.6,3.7,2.2c1.4,0.6,2.7,1.2,4.1,1.7l3.6,1.4c1.3,0.6,2.3,1.2,3.2,2.1c0.9,0.8,1.3,2,1.3,3.4
					c0,1.4-0.4,2.5-1.3,3.3c-0.8,0.8-1.9,1.3-3.2,1.6c-1.1,0.5-4.6,0.3-6.9-0.9c-0.9-0.5-1.7-1-2.4-1.5c-0.7-0.5-1.3-1-1.9-1.4
					c-0.6-0.4-1.1-0.6-1.7-0.6c-0.5,0-0.9,0.1-1.3,0.4c-0.4,0.3-0.7,0.6-1,1c-0.3,0.4-0.5,0.9-0.7,1.4c-0.2,0.5-0.3,0.9-0.3,1.3
					c0,0.8,0.3,1.7,1,2.5c0.6,0.9,1.5,1.6,2.7,2.4c1.1,0.7,2.5,1.3,4,1.8c1.6,0.5,3.2,0.7,5,0.7V92c0,0.4,0.2,0.8,0.6,1.1
					c0.4,0.3,0.9,0.5,1.4,0.5c0.5,0,1-0.1,1.4-0.4c0.4-0.3,0.6-0.6,0.6-1v-1.9c3.3-0.5,6.1-1.8,8.2-4c2.1-2.1,3.1-5,3.1-8.7
					C51.9,75.4,51.6,73.7,50.9,72.3z"/>
			</g>
			<g>
				<path class="st2" d="M50.9,72.3c-0.7-1.4-1.6-2.6-2.6-3.6c-1.1-1-2.3-1.8-3.6-2.4c-1.4-0.6-2.7-1.2-4-1.7L37,63.4
					c-1.4-0.6-2.5-1.2-3.4-1.9c-0.9-0.7-1.3-1.7-1.3-3c0-1.2,0.4-2.1,1.3-2.8c3.3-2.6,8.9-1.3,9.6-1.1c0.7,0.2,1.3,0.5,1.9,0.7
					c0.5,0.3,1,0.5,1.4,0.7c0.4,0.2,0.8,0.3,1.3,0.3c0.6,0,1-0.1,1.4-0.4c0.4-0.3,0.7-0.7,1-1.1c0.3-0.4,0.4-0.9,0.6-1.3
					c0.1-0.5,0.2-0.9,0.2-1.2c0-0.9-0.4-1.6-1-2.2c-0.7-0.6-1.6-1.1-2.6-1.4c-1-0.4-2.2-0.6-3.3-0.8c-1.2-0.2-2.3-0.2-3.2-0.2V46
					c0-0.4-0.2-0.8-0.6-1.1c-0.4-0.3-0.9-0.5-1.4-0.5c-0.6,0-1,0.1-1.4,0.4c-0.4,0.3-0.6,0.6-0.6,1v1.7c-1.5,0.2-3,0.6-4.4,1.1
					c-1.4,0.5-2.6,1.2-3.7,2.2c-1.1,0.9-1.9,2.1-2.6,3.5c-0.6,1.4-1,3-1,4.9c0,1.9,0.4,3.5,1,4.8c0.7,1.3,1.6,2.4,2.7,3.3
					c1.1,0.9,2.4,1.6,3.7,2.2c1.4,0.6,2.7,1.2,4.1,1.7l3.6,1.4c1.3,0.6,2.3,1.2,3.2,2.1c0.9,0.8,1.3,2,1.3,3.4
					c0,1.4-0.4,2.5-1.3,3.3c-0.8,0.8-1.9,1.3-3.2,1.6c-1.1,0.5-4.6,0.3-6.9-0.9c-0.9-0.5-1.7-1-2.4-1.5c-0.7-0.5-1.3-1-1.9-1.4
					c-0.6-0.4-1.1-0.6-1.7-0.6c-0.5,0-0.9,0.1-1.3,0.4c-0.4,0.3-0.7,0.6-1,1c-0.3,0.4-0.5,0.9-0.7,1.4c-0.2,0.5-0.3,0.9-0.3,1.3
					c0,0.8,0.3,1.7,1,2.5c0.6,0.9,1.5,1.6,2.7,2.4c1.1,0.7,2.5,1.3,4,1.8c1.6,0.5,3.2,0.7,5,0.7V92c0,0.4,0.2,0.8,0.6,1.1
					c0.4,0.3,0.9,0.5,1.4,0.5c0.5,0,1-0.1,1.4-0.4c0.4-0.3,0.6-0.6,0.6-1v-1.9c3.3-0.5,6.1-1.8,8.2-4c2.1-2.1,3.1-5,3.1-8.7
					C51.9,75.4,51.6,73.7,50.9,72.3z"/>
			</g>
		</g>
		<path class="st2" d="M99.8,77.7c0,0.5,0.1,1.1,0.2,1.7c0.2,0.7,0.5,1.3,0.9,1.9c0.5,0.6,1.1,1.1,1.9,1.5c0.8,0.4,1.8,0.6,3.1,0.6
			c1.1,0,2.1-0.2,2.8-0.5c0.8-0.4,1.4-0.8,1.8-1.4c0.4-0.6,0.7-1.2,0.9-2c0.2-0.7,0.3-1.4,0.3-2.2c0-0.8,0.3-1.4,0.9-1.7
			c0.6-0.3,1.5-0.5,2.8-0.5c1.3,0,2.3,0.2,2.8,0.7c0.6,0.4,0.9,1.4,0.9,2.8c0,1.7-0.3,3.3-1,4.7c-0.7,1.4-1.6,2.6-2.8,3.6
			c-1.2,1-2.6,1.7-4.3,2.3c-1.7,0.5-3.5,0.8-5.4,0.8c-2.1,0-4-0.3-5.6-0.9c-1.6-0.6-3-1.4-4.1-2.5c-1.1-1.1-2-2.4-2.6-3.9
			c-0.6-1.5-0.9-3.2-0.9-5v-1h-2.6c-0.7,0-1.2-0.2-1.7-0.7c-0.4-0.5-0.7-1.1-0.7-1.9c0-0.8,0.2-1.4,0.7-1.9c0.4-0.5,1-0.8,1.7-0.8
			h2.6v-4h-2.6c-0.7,0-1.2-0.2-1.7-0.7c-0.4-0.5-0.7-1.1-0.7-1.9c0-0.8,0.2-1.4,0.7-1.9c0.4-0.5,1-0.8,1.7-0.8h2.6V61
			c0-2.4,0.3-4.4,1-6.1c0.7-1.7,1.6-3,2.8-4c1.2-1,2.6-1.8,4.2-2.3c1.6-0.5,3.3-0.7,5.1-0.7c1.9,0,3.7,0.2,5.4,0.7
			c1.7,0.5,3.1,1.2,4.3,2.2c1.2,0.9,2.1,2.1,2.8,3.4c0.7,1.3,1,2.9,1,4.6c0,1.4-0.3,2.3-0.9,2.7c-0.6,0.4-1.5,0.7-2.8,0.7
			c-1.3,0-2.3-0.2-2.8-0.5c-0.6-0.3-0.9-0.9-0.9-1.7c0-0.6-0.1-1.2-0.2-1.8c-0.2-0.6-0.4-1.3-0.9-1.8c-0.4-0.6-1-1-1.8-1.4
			c-0.8-0.4-1.7-0.6-3-0.6c-1.9,0-3.4,0.5-4.5,1.6c-1,1.1-1.6,2.7-1.6,5v1.3h5.4c0.6,0,1.2,0.3,1.7,0.8c0.5,0.5,0.7,1.2,0.7,1.9
			c0,0.8-0.2,1.4-0.7,1.9c-0.5,0.5-1,0.7-1.7,0.7h-5.4v4h5.4c0.6,0,1.2,0.3,1.7,0.8c0.5,0.5,0.7,1.1,0.7,1.9c0,0.8-0.2,1.4-0.7,1.9
			c-0.5,0.5-1,0.7-1.7,0.7h-5.4V77.7z"/>
		<path class="st9" d="M72,22.1c-5.3,0-10.3,1-15,2.8l-1.4-3.6l-5.8,7.1L42,37.9l14.6,2.4l6.5,1.1l-1.4-3.6
			c3.2-1.2,6.6-1.9,10.1-1.9c8.7,0,15.7,3.2,20.9,9.2c4-3.6,9.9-4.2,14.2-4.2c-0.5-0.6-3.1-4.1-3.6-4.6C95.7,27.5,84.5,22.1,72,22.1
			z"/>
		<path class="st2" d="M74.9,116.9c5.3,0,10.3-1,15-2.8l1.4,3.6l5.8-7.1l7.7-9.5l-14.6-2.4l-6.5-1.1l1.4,3.6
			c-3.2,1.2-6.6,1.9-10.1,1.9c-8.7,0-15.7-3.2-20.9-9.2c-5.3,4.1-6.9,5-12,7.1C49.8,110.7,61.7,116.9,74.9,116.9z"/>
	</g>
	<text transform="matrix(1 0 0 1 198.5742 84.5208)" class="st7 st10 st11">Convertidor de divisas</text>
	<path class="st13" d="M119.5,27h436.6c7.4,0,13.4,7.4,13.4,16.5v65c0,5.8-3.8,10.5-8.5,10.5H184.5"/>
</g>
</svg>
